<svg width="241" height="235" fill="none" xmlns="http://www.w3.org/2000/svg"><path d="M36 102.818c0-25.88 0-64.701 5.037-74.586A46.211 46.211 0 0161.232 8.037C71.117 3 84.057 3 109.938 3h21.124c25.881 0 38.821 0 48.706 5.037a46.205 46.205 0 0120.195 20.195C205 38.117 205 51.057 205 76.938v21.124c0 25.881 0 38.821-5.037 48.706a46.198 46.198 0 01-20.195 20.195C169.883 172 156.943 172 131.062 172h-21.124c-25.881 0-38.821 0-48.706-5.037a46.205 46.205 0 01-20.195-20.195C36 136.883 36 123.943 36 98.062v4.756z" fill="url(#paint0_linear)"/><g filter="url(#filter0_d)"><path fill-rule="evenodd" clip-rule="evenodd" d="M89.529 37.11c.83 1.38.382 3.17-.95 4.071a57.742 57.742 0 00-15.582 15.684c-.894 1.34-2.674 1.793-4.051.963l-3.325-2.004c-1.377-.83-1.829-2.627-.943-3.972a67.47 67.47 0 018.525-10.49 67.26 67.26 0 0110.364-8.524c1.338-.892 3.129-.443 3.959.938l2.003 3.334zm71.41 11.13a57.61 57.61 0 00-8.519-7.059c-1.331-.902-1.778-2.69-.949-4.071l2.003-3.334c.83-1.38 2.621-1.83 3.959-.938a67.446 67.446 0 0118.889 19.013c.886 1.346.434 3.144-.943 3.974l-3.325 2.003c-1.377.83-3.157.377-4.052-.962a57.78 57.78 0 00-7.063-8.626zM120.5 127.908c21.414 0 38.774-17.431 38.774-38.933 0-21.501-17.36-38.932-38.774-38.932s-38.774 17.43-38.774 38.932c0 21.502 17.36 38.933 38.774 38.933zm0 9.733a48.098 48.098 0 0023.955-6.349c1.452-.831 3.331-.391 4.167 1.063l2.502 4.352a2.902 2.902 0 003.973 1.068l3.357-1.946a2.927 2.927 0 001.065-3.989l-3.701-6.436c-.659-1.147-.461-2.589.43-3.565a48.602 48.602 0 0012.72-32.864c0-26.877-21.7-48.665-48.468-48.665-26.768 0-48.468 21.788-48.468 48.665a48.6 48.6 0 0012.559 32.687c.882.976 1.076 2.412.42 3.553l-3.685 6.408a2.926 2.926 0 001.065 3.988l3.358 1.947a2.901 2.901 0 003.972-1.069l2.447-4.255c.839-1.459 2.726-1.897 4.18-1.056a48.1 48.1 0 0024.152 6.463zm-24.215-32.38a2.901 2.901 0 003.972 1.069l45.333-26.28a2.927 2.927 0 001.064-3.988l-1.939-3.372a2.901 2.901 0 00-3.972-1.069l-45.332 26.28a2.926 2.926 0 00-1.065 3.988l1.939 3.372z" fill="url(#paint1_linear)"/></g><defs><linearGradient id="paint0_linear" x1="36" y1="3" x2="205" y2="172" gradientUnits="userSpaceOnUse"><stop stop-color="#4F9AF2"/><stop offset="1" stop-color="#1E6BC6"/></linearGradient><linearGradient id="paint1_linear" x1="72.804" y1="42.692" x2="162.585" y2="133.628" gradientUnits="userSpaceOnUse"><stop stop-color="#fff"/><stop offset="1" stop-color="#D5F2FF"/></linearGradient><filter id="filter0_d" x=".222" y=".377" width="240.557" height="233.79" filterUnits="userSpaceOnUse" color-interpolation-filters="sRGB"><feFlood flood-opacity="0" result="BackgroundImageFix"/><feColorMatrix in="SourceAlpha" values="0 0 0 0 0 0 0 0 0 0 0 0 0 0 0 0 0 0 127 0"/><feOffset dy="32"/><feGaussianBlur stdDeviation="32"/><feColorMatrix values="0 0 0 0 0.133333 0 0 0 0 0.176471 0 0 0 0 0.207843 0 0 0 0.16 0"/><feBlend in2="BackgroundImageFix" result="effect1_dropShadow"/><feBlend in="SourceGraphic" in2="effect1_dropShadow" result="shape"/></filter></defs></svg>