<svg width="251" height="77" fill="none" xmlns="http://www.w3.org/2000/svg"><path d="M230.846 0H20.165c-.768 0-1.527 0-2.293.004-.641.004-1.277.015-1.924.024a30.2 30.2 0 00-4.197.339c-1.385.215-2.728.62-3.981 1.2a13.5 13.5 0 00-3.39 2.258c-1 .906-1.833 1.955-2.467 3.104a11.902 11.902 0 00-1.31 3.645 22.813 22.813 0 00-.374 3.834c-.02.587-.022 1.176-.032 1.763v44.264c.01.594.012 1.17.032 1.765a22.81 22.81 0 00.375 3.834 11.86 11.86 0 001.309 3.646 12.003 12.003 0 002.467 3.092c.99.913 2.135 1.675 3.39 2.257 1.253.583 2.595.99 3.981 1.208 1.388.208 2.79.322 4.197.339.647.013 1.283.02 1.924.02.766.004 1.525.004 2.293.004h210.681c.753 0 1.518 0 2.271-.004.638 0 1.292-.008 1.93-.02a30.337 30.337 0 004.189-.34 15.19 15.19 0 003.996-1.207 13.167 13.167 0 003.387-2.257 12.36 12.36 0 002.474-3.092 11.886 11.886 0 001.297-3.646c.234-1.268.363-2.549.389-3.834.008-.595.008-1.17.008-1.765.016-.696.016-1.388.016-2.095V18.262c0-.701 0-1.397-.016-2.09 0-.588 0-1.177-.008-1.764a23.754 23.754 0 00-.389-3.834 11.931 11.931 0 00-1.297-3.645c-1.292-2.304-3.342-4.179-5.861-5.362a15.112 15.112 0 00-3.996-1.2 29.818 29.818 0 00-4.189-.339c-.638-.01-1.292-.02-1.93-.024C232.364 0 231.599 0 230.846 0z" fill="#000"/><path d="M17.882 74.924c-.638 0-1.26-.007-1.893-.02a28.995 28.995 0 01-3.915-.313 13.14 13.14 0 01-3.47-1.049 11.336 11.336 0 01-2.925-1.947 10.315 10.315 0 01-3.274-5.848 21.793 21.793 0 01-.35-3.59c-.012-.404-.03-1.749-.03-1.749V16.171s.019-1.324.03-1.713c.017-1.201.133-2.4.348-3.585.2-1.108.583-2.181 1.138-3.183a10.383 10.383 0 012.126-2.677 11.67 11.67 0 012.937-1.958 13.008 13.008 0 013.462-1.042 28.823 28.823 0 013.928-.314l1.89-.023h215.222l1.913.024c1.304.014 2.605.118 3.892.311 1.217.19 2.396.543 3.499 1.05 2.173 1.024 3.942 2.644 5.058 4.634.545.995.923 2.06 1.12 3.157.218 1.195.339 2.403.364 3.614.006.543.006 1.125.006 1.705.017.718.017 1.402.017 2.09V58.34c0 .696 0 1.374-.017 2.059 0 .623 0 1.193-.008 1.78a22.286 22.286 0 01-.358 3.55 10.33 10.33 0 01-1.131 3.198 10.6 10.6 0 01-2.126 2.653 11.365 11.365 0 01-2.931 1.958 13.1 13.1 0 01-3.493 1.053 28.68 28.68 0 01-3.915.313 89.81 89.81 0 01-1.879.02l-2.27.004-212.965-.004z" fill="#fff"/><path d="M52.546 38.088a9.217 9.217 0 011.404-4.738c.897-1.445 2.18-2.66 3.728-3.53a10.772 10.772 0 00-3.79-3.088 11.84 11.84 0 00-4.902-1.21c-3.657-.35-7.202 2.002-9.066 2.002-1.9 0-4.769-1.966-7.858-1.908a12.38 12.38 0 00-5.654 1.542c-1.707.952-3.115 2.292-4.087 3.89-4.212 6.668-1.07 16.468 2.964 21.858 2.019 2.639 4.378 5.587 7.465 5.483 3.02-.115 4.149-1.762 7.795-1.762 3.612 0 4.67 1.762 7.82 1.695 3.242-.048 5.284-2.65 7.232-5.315a21.126 21.126 0 003.307-6.159c-1.884-.728-3.49-1.947-4.621-3.505-1.13-1.558-1.735-3.385-1.737-5.255zm-5.949-16.11c1.768-1.94 2.638-4.434 2.427-6.951-2.7.26-5.194 1.44-6.985 3.305a9.08 9.08 0 00-1.974 3.12 8.501 8.501 0 00-.517 3.573 9.634 9.634 0 003.908-.782 8.851 8.851 0 003.141-2.265zm42.19 29.994h-9.913l-2.38 6.427h-4.199l9.39-23.78h4.362l9.39 23.78h-4.271l-2.379-6.427zm-8.886-2.966h7.858l-3.874-10.432h-.108L79.9 49.006zm35.813.726c0 5.388-3.154 8.85-7.913 8.85a6.92 6.92 0 01-3.459-.734 6.184 6.184 0 01-2.507-2.3h-.09v8.587h-3.892V41.062h3.768v2.883h.071a6.49 6.49 0 012.556-2.295 7.235 7.235 0 013.482-.77c4.812 0 7.984 3.479 7.984 8.852zm-4 0c0-3.51-1.984-5.819-5.011-5.819-2.974 0-4.974 2.357-4.974 5.819 0 3.493 2 5.833 4.974 5.833 3.027 0 5.011-2.291 5.011-5.833zm24.87 0c0 5.388-3.155 8.85-7.914 8.85a6.92 6.92 0 01-3.459-.734 6.178 6.178 0 01-2.507-2.3h-.09v8.587h-3.892V41.062h3.768v2.883h.071a6.483 6.483 0 012.556-2.295 7.234 7.234 0 013.481-.77c4.813 0 7.986 3.479 7.986 8.852zm-4.002 0c0-3.51-1.983-5.819-5.01-5.819-2.974 0-4.974 2.357-4.974 5.819 0 3.493 2 5.833 4.974 5.833 3.027 0 5.01-2.291 5.01-5.833zm17.792 2.042c.289 2.358 2.794 3.906 6.218 3.906 3.28 0 5.64-1.548 5.64-3.674 0-1.846-1.423-2.951-4.794-3.709l-3.37-.742c-4.775-1.055-6.992-3.097-6.992-6.41 0-4.104 3.91-6.922 9.46-6.922 5.498 0 9.265 2.818 9.392 6.921h-3.929c-.235-2.373-2.38-3.805-5.516-3.805-3.135 0-5.28 1.449-5.28 3.558 0 1.681 1.37 2.67 4.722 3.428l2.865.643c5.336 1.154 7.551 3.114 7.551 6.592 0 4.45-3.874 7.236-10.038 7.236-5.767 0-9.661-2.721-9.913-7.022h3.984zm24.371-14.815v4.102h3.605v2.819h-3.605v9.558c0 1.485.722 2.177 2.307 2.177.428-.007.855-.035 1.28-.083v2.802c-.713.121-1.437.177-2.162.164-3.839 0-5.336-1.318-5.336-4.68V43.88h-2.757v-2.82h2.757v-4.1h3.911zm5.691 12.772c0-5.455 3.514-8.883 8.993-8.883 5.497 0 8.995 3.428 8.995 8.883 0 5.47-3.479 8.883-8.995 8.883-5.514 0-8.993-3.413-8.993-8.883zm14.022 0c0-3.742-1.875-5.95-5.029-5.95s-5.029 2.225-5.029 5.95c0 3.757 1.875 5.95 5.029 5.95s5.029-2.193 5.029-5.95zm7.174-8.669h3.712v2.95h.09c.252-.921.842-1.736 1.673-2.306a4.82 4.82 0 012.888-.826c.449-.001.896.043 1.334.133v3.329a5.922 5.922 0 00-1.749-.215 4.245 4.245 0 00-1.652.267 3.938 3.938 0 00-1.379.874 3.53 3.53 0 00-.854 1.321 3.307 3.307 0 00-.171 1.527V58.4h-3.892V41.062zm27.641 12.245c-.524 3.147-3.876 5.307-8.165 5.307-5.515 0-8.939-3.379-8.939-8.8 0-5.439 3.442-8.966 8.776-8.966 5.246 0 8.545 3.296 8.545 8.552v1.22h-13.392v.215a4.15 4.15 0 00.256 1.885 4.48 4.48 0 001.082 1.623c.483.464 1.067.83 1.716 1.071a5.35 5.35 0 002.046.331 4.617 4.617 0 002.632-.555 4.036 4.036 0 001.747-1.883h3.696zm-13.157-5.175h9.48a3.863 3.863 0 00-.28-1.686 4.143 4.143 0 00-.994-1.443 4.598 4.598 0 00-1.544-.958 4.934 4.934 0 00-1.833-.313 5.198 5.198 0 00-1.849.328 4.859 4.859 0 00-1.568.952 4.38 4.38 0 00-1.047 1.431 4.064 4.064 0 00-.365 1.69zM79.414 16.72a6.003 6.003 0 012.398.33c.762.27 1.45.693 2.012 1.236a4.988 4.988 0 011.24 1.904c.255.711.333 1.465.23 2.207 0 3.65-2.157 5.749-5.88 5.749h-4.513V16.719h4.513zm-2.573 9.81h2.357a4.26 4.26 0 001.708-.256 3.957 3.957 0 001.421-.902 3.53 3.53 0 00.86-1.373c.172-.511.217-1.05.132-1.579a3.307 3.307 0 00-.145-1.569 3.544 3.544 0 00-.862-1.362 3.966 3.966 0 00-1.416-.896 4.272 4.272 0 00-1.698-.259h-2.356v8.196zm10.646-2.7a3.757 3.757 0 01.208-1.678 4.01 4.01 0 01.933-1.458 4.48 4.48 0 011.498-.988 4.837 4.837 0 013.615 0c.57.23 1.08.567 1.499.988.419.421.736.918.933 1.458.196.54.267 1.112.208 1.678.06.568-.01 1.14-.206 1.681a4.023 4.023 0 01-.932 1.461c-.419.422-.93.76-1.5.99-.57.231-1.186.35-1.81.35a4.822 4.822 0 01-1.809-.35 4.476 4.476 0 01-1.5-.99 4.023 4.023 0 01-.932-1.46 3.758 3.758 0 01-.205-1.681zm6.98 0c0-1.869-.919-2.962-2.53-2.962-1.618 0-2.528 1.093-2.528 2.963 0 1.884.91 2.968 2.528 2.968 1.612 0 2.53-1.092 2.53-2.968zm13.737 4.316h-1.931l-1.949-6.35h-.147l-1.941 6.35h-1.912l-2.6-8.623h1.888l1.69 6.58h.139l1.939-6.58h1.785l1.939 6.58h.147l1.681-6.58h1.861l-2.589 8.623zm4.776-8.623h1.791v1.37h.139a2.67 2.67 0 011.139-1.18c.504-.275 1.09-.4 1.675-.356.459-.032.92.032 1.348.185.429.153.814.393 1.128.7.313.309.547.677.683 1.08.137.401.173.826.105 1.242v5.582h-1.861v-5.155c0-1.385-.658-2.075-2.035-2.075a2.343 2.343 0 00-.911.143c-.289.107-.55.27-.764.477a1.955 1.955 0 00-.475.725c-.1.27-.134.557-.101.84v5.045h-1.861v-8.623zm10.974-3.366h1.861v11.99h-1.861v-11.99zm4.448 7.673a3.769 3.769 0 01.208-1.678c.197-.54.515-1.037.934-1.459a4.47 4.47 0 011.498-.988 4.836 4.836 0 013.616.001 4.48 4.48 0 011.498.988c.419.42.737.917.933 1.458.197.54.268 1.112.209 1.678.06.568-.01 1.14-.206 1.681a4.021 4.021 0 01-.933 1.46c-.419.423-.93.76-1.499.991a4.847 4.847 0 01-3.62 0 4.475 4.475 0 01-1.499-.99 4.021 4.021 0 01-.933-1.46 3.764 3.764 0 01-.206-1.682zm6.98 0c0-1.869-.918-2.962-2.53-2.962-1.617 0-2.527 1.093-2.527 2.962 0 1.885.91 2.97 2.527 2.97 1.612 0 2.53-1.093 2.53-2.97zm3.875 1.877c0-1.552 1.264-2.447 3.507-2.574l2.555-.134v-.745c0-.91-.659-1.425-1.931-1.425-1.039 0-1.759.349-1.965.959h-1.802c.19-1.482 1.714-2.432 3.853-2.432 2.364 0 3.698 1.077 3.698 2.898v5.892h-1.792v-1.212h-.147a3.088 3.088 0 01-1.216 1.027 3.424 3.424 0 01-1.617.327 3.097 3.097 0 01-1.174-.113 2.93 2.93 0 01-1.024-.54 2.634 2.634 0 01-.696-.872 2.408 2.408 0 01-.249-1.056zm6.062-.736v-.721l-2.303.134c-1.299.08-1.888.484-1.888 1.244 0 .776.736 1.228 1.749 1.228.297.027.596 0 .881-.08.285-.081.549-.213.777-.39.228-.175.414-.391.549-.634.135-.244.215-.51.235-.781zm4.299-1.141c0-2.724 1.532-4.45 3.914-4.45a3.345 3.345 0 011.687.372c.512.268.93.664 1.205 1.14h.139v-4.735h1.861v11.989h-1.783v-1.362h-.147c-.297.474-.73.864-1.252 1.13a3.522 3.522 0 01-1.71.374c-2.399 0-3.914-1.726-3.914-4.457zm1.922 0c0 1.83.943 2.93 2.52 2.93 1.569 0 2.538-1.116 2.538-2.922 0-1.797-.98-2.93-2.538-2.93-1.567 0-2.52 1.109-2.52 2.923zm14.584 0a3.768 3.768 0 01.208-1.678c.197-.54.515-1.037.933-1.458.419-.421.93-.758 1.499-.988a4.825 4.825 0 011.807-.35c.623 0 1.239.12 1.808.35a4.47 4.47 0 011.498.988c.419.421.737.918.934 1.458.196.54.267 1.112.208 1.678.06.568-.01 1.14-.206 1.681a4.032 4.032 0 01-.932 1.461 4.48 4.48 0 01-1.5.99c-.57.231-1.186.35-1.81.35a4.822 4.822 0 01-1.809-.35 4.48 4.48 0 01-1.5-.99 4.019 4.019 0 01-.932-1.46 3.764 3.764 0 01-.206-1.681zm6.98 0c0-1.869-.918-2.962-2.53-2.962-1.617 0-2.527 1.093-2.527 2.963 0 1.884.91 2.968 2.527 2.968 1.612 0 2.53-1.092 2.53-2.968zm4.412-4.307h1.791v1.37h.139a2.67 2.67 0 011.139-1.18c.504-.275 1.09-.4 1.676-.356.458-.032.919.032 1.348.185a3.1 3.1 0 011.127.7c.313.309.547.677.684 1.08.136.401.172.826.105 1.242v5.582h-1.861v-5.155c0-1.385-.659-2.075-2.035-2.075a2.345 2.345 0 00-.912.143c-.289.107-.55.27-.763.477a1.945 1.945 0 00-.476.725c-.1.27-.134.557-.101.84v5.045h-1.861v-8.623zm18.525-2.147v2.186h2.043v1.434h-2.043v4.434c0 .903.407 1.299 1.333 1.299.237-.001.474-.014.71-.04v1.418a6.657 6.657 0 01-1.012.087c-2.07 0-2.894-.666-2.894-2.328v-4.87h-1.497v-1.434h1.497v-2.186h1.863zm4.585-1.219h1.845v4.752h.147a2.754 2.754 0 011.171-1.188 3.126 3.126 0 011.705-.357 3.37 3.37 0 011.336.204c.424.157.804.398 1.114.705a2.8 2.8 0 01.681 1.072c.137.398.177.82.116 1.234v5.567h-1.863V23c0-1.378-.701-2.075-2.016-2.075a2.396 2.396 0 00-.943.118 2.234 2.234 0 00-.8.47c-.227.208-.4.46-.509.735-.109.276-.151.57-.123.863v5.036h-1.861v-11.99zm18.967 9.66c-.253.788-.801 1.47-1.548 1.926a4.109 4.109 0 01-2.538.57 4.638 4.638 0 01-1.81-.32 4.294 4.294 0 01-1.495-.984 3.842 3.842 0 01-.905-1.468 3.603 3.603 0 01-.146-1.68 3.65 3.65 0 01.149-1.684 3.899 3.899 0 01.9-1.476 4.36 4.36 0 011.49-1 4.7 4.7 0 011.809-.345c2.624 0 4.207 1.64 4.207 4.347v.594h-6.66v.095a2.11 2.11 0 00.128.936c.113.3.294.575.531.808a2.5 2.5 0 00.842.542 2.7 2.7 0 001.011.185c.445.049.896-.025 1.296-.21.399-.187.729-.478.947-.836h1.792zm-6.547-2.779h4.764a1.92 1.92 0 00-.127-.853 2.045 2.045 0 00-.493-.734 2.297 2.297 0 00-.776-.488 2.464 2.464 0 00-.926-.159 2.607 2.607 0 00-.939.163 2.436 2.436 0 00-.797.484 2.206 2.206 0 00-.528.728 2.048 2.048 0 00-.178.86z" fill="#000"/></svg>