<svg width="15" height="11" fill="none" xmlns="http://www.w3.org/2000/svg"><g clip-path="url(#clip0)"><path d="M-3.765 0h22.56v11.03h-22.56V0z" fill="#012169"/><path d="M-3.765 0v1.232l20.038 9.797h2.522V9.797L-1.242 0h-2.523zm22.56 0v1.232L-1.242 11.03h-2.523V9.797L16.273 0h2.522z" fill="#fff"/><path d="M5.636 0v11.03h3.758V0H5.636zm-9.4 3.677v3.675h22.56V3.677h-22.56z" fill="#fff"/><path d="M-3.765 4.412v2.206h22.56V4.412h-22.56zM6.387 0v11.03h2.256V0H6.387zM-3.765 11.03l7.52-3.678h1.683l-7.522 3.677h-1.68zm0-11.03l7.52 3.677H2.072L-3.765.823V0zm13.36 3.677L17.115 0h1.68l-7.52 3.677h-1.68zm9.2 7.352l-7.52-3.677h1.682l5.838 2.854v.823z" fill="#C8102E"/></g><defs><clipPath id="clip0"><path fill="#fff" d="M0 0h15v11H0z"/></clipPath></defs></svg>