<svg width="177" height="54" viewBox="0 0 177 54" fill="none" xmlns="http://www.w3.org/2000/svg">
<path d="M162.599 0.000175499H14.0767C13.5353 0.000175499 13.0004 0.0001755 12.4605 0.00287549C12.0085 0.00557548 11.5601 0.013419 11.1038 0.0200204C10.1124 0.0306878 9.12337 0.110438 8.14526 0.258578C7.16854 0.409943 6.2224 0.695309 5.33887 1.10503C4.45641 1.51821 3.65009 2.05509 2.94915 2.69621C2.24452 3.33552 1.65717 4.07448 1.20966 4.88468C0.76092 5.69325 0.449761 6.55972 0.286932 7.45415C0.122555 8.34745 0.0341017 9.25105 0.022367 10.1568C0.00866628 10.5707 0.00721943 10.986 0 11.4V42.6041C0.00721943 43.0233 0.00866628 43.4294 0.022367 43.8487C0.0341053 44.7545 0.122558 45.658 0.286932 46.5513C0.449312 47.4462 0.760489 48.3132 1.20966 49.1221C1.65696 49.9296 2.2444 50.6656 2.94915 51.3014C3.64743 51.9453 4.45428 52.4826 5.33887 52.8926C6.2224 53.3034 7.16843 53.5905 8.14526 53.7442C9.12353 53.8911 10.1125 53.9709 11.1038 53.9829C11.5601 53.992 12.0085 53.9973 12.4605 53.9973C13.0004 54 13.5353 54 14.0767 54H162.599C163.13 54 163.669 54 164.2 53.9973C164.65 53.9973 165.111 53.992 165.561 53.9829C166.55 53.9715 167.537 53.8918 168.514 53.7442C169.494 53.5894 170.443 53.3024 171.331 52.8926C172.215 52.4823 173.021 51.9451 173.718 51.3014C174.421 50.6631 175.01 49.9277 175.463 49.1221C175.909 48.3126 176.217 47.4457 176.377 46.5513C176.541 45.6579 176.633 44.7545 176.651 43.8487C176.657 43.4294 176.657 43.0233 176.657 42.6041C176.668 42.1137 176.668 41.6259 176.668 41.1275V12.8739C176.668 12.3795 176.668 11.8891 176.657 11.4C176.657 10.986 176.657 10.5707 176.651 10.1568C176.633 9.25092 176.541 8.34752 176.377 7.4541C176.216 6.56018 175.908 5.69379 175.463 4.88462C174.551 3.26068 173.106 1.9388 171.331 1.1049C170.443 0.696189 169.493 0.410899 168.514 0.258457C167.537 0.109664 166.55 0.0298859 165.561 0.0198314C165.111 0.0132435 164.65 0.00533248 164.2 0.00269999C163.669 0 163.13 0 162.599 0V0.000175499Z" fill="black"/>
<path d="M12.4677 52.8186C12.0179 52.8186 11.5789 52.8134 11.1326 52.8042C10.2081 52.7932 9.28572 52.7196 8.37308 52.584C7.52209 52.45 6.6977 52.2007 5.92712 51.8444C5.16361 51.491 4.46722 51.0276 3.86464 50.472C3.25333 49.9229 2.7444 49.286 2.35799 48.5867C1.96733 47.8828 1.69697 47.1283 1.55632 46.3495C1.40444 45.5126 1.32227 44.6665 1.31051 43.8182C1.30115 43.5335 1.28889 42.5856 1.28889 42.5856V11.4C1.28889 11.4 1.30195 10.4666 1.31058 10.1923C1.32184 9.34546 1.40354 8.50059 1.55497 7.66505C1.69587 6.88411 1.96644 6.12743 2.35731 5.42123C2.7423 4.72235 3.24841 4.08504 3.85603 3.534C4.46297 2.97773 5.16158 2.51196 5.9264 2.15368C6.69521 1.79847 7.51803 1.55093 8.36731 1.41936C9.28294 1.28242 10.2085 1.20839 11.1362 1.19788L12.4684 1.1814H164.192L165.541 1.19854C166.46 1.20853 167.377 1.2819 168.284 1.41804C169.142 1.55126 169.974 1.80052 170.751 2.15763C172.283 2.87967 173.53 4.022 174.317 5.42452C174.701 6.12585 174.968 6.87635 175.107 7.65055C175.26 8.49295 175.346 9.34445 175.363 10.1983C175.368 10.5806 175.368 10.9913 175.368 11.4C175.379 11.9062 175.379 12.3881 175.379 12.8739V41.1274C175.379 41.6179 175.379 42.0965 175.368 42.579C175.368 43.018 175.368 43.4201 175.362 43.834C175.345 44.6726 175.26 45.5089 175.109 46.3363C174.972 47.1207 174.703 47.8811 174.312 48.5907C173.923 49.2825 173.417 49.9138 172.813 50.4614C172.21 51.02 171.512 51.4861 170.747 51.8418C169.971 52.2009 169.141 52.4511 168.284 52.584C167.372 52.7203 166.449 52.7939 165.525 52.8042C165.092 52.8134 164.639 52.8186 164.2 52.8186L162.599 52.8214L12.4677 52.8186Z" fill="white"/>
<path d="M36.9043 26.8505C36.9208 25.6788 37.2612 24.5299 37.8938 23.5107C38.5263 22.4916 39.4305 21.6353 40.5223 21.0216C39.8287 20.1159 38.9138 19.3705 37.8501 18.8447C36.7864 18.3189 35.6033 18.0271 34.3948 17.9926C31.8167 17.7451 29.3173 19.4032 28.0036 19.4032C26.6644 19.4032 24.6417 18.0171 22.4635 18.0581C21.0547 18.0997 19.6816 18.4743 18.4782 19.1455C17.2747 19.8166 16.2819 20.7613 15.5964 21.8876C12.6273 26.5883 14.842 33.4968 17.6862 37.2965C19.1093 39.1571 20.7724 41.2354 22.9486 41.1617C25.0781 41.081 25.8734 39.92 28.4439 39.92C30.9905 39.92 31.7367 41.1617 33.9571 41.1149C36.2421 41.081 37.6818 39.246 39.055 37.3678C40.0774 36.042 40.8642 34.5768 41.3861 33.0263C40.0586 32.5129 38.9257 31.6535 38.1287 30.5553C37.3317 29.457 36.9059 28.1686 36.9043 26.8505Z" fill="black"/>
<path d="M32.7105 15.4936C33.9565 14.1259 34.5703 12.3681 34.4216 10.5933C32.5182 10.7761 30.7599 11.608 29.4971 12.9231C28.8797 13.5656 28.4069 14.3131 28.1056 15.1228C27.8043 15.9324 27.6805 16.7885 27.7412 17.642C28.6933 17.6509 29.6352 17.4622 30.496 17.0901C31.3567 16.718 32.1139 16.1721 32.7105 15.4936Z" fill="black"/>
<path d="M62.4529 36.6382H55.4647L53.7865 41.1693H50.8265L57.4457 24.4051H60.5209L67.1401 41.1693H64.1297L62.4529 36.6382ZM56.1885 34.5473H61.7278L58.9971 27.1935H58.9206L56.1885 34.5473Z" fill="black"/>
<path d="M81.4352 35.0588C81.4352 38.8571 79.212 41.2974 75.857 41.2974C75.0071 41.3381 74.1619 41.1591 73.4182 40.7809C72.6744 40.4027 72.0621 39.8406 71.6514 39.159H71.5879V45.213H68.8443V28.9468H71.5V30.9798H71.5504C71.98 30.3014 72.6026 29.7422 73.3521 29.3617C74.1015 28.9813 74.9497 28.7937 75.8065 28.8189C79.199 28.8189 81.4352 31.2711 81.4352 35.0588ZM78.6151 35.0588C78.6151 32.5842 77.2166 30.9573 75.0828 30.9573C72.9865 30.9573 71.5764 32.6185 71.5764 35.0588C71.5764 37.5216 72.9865 39.1709 75.0828 39.1709C77.2166 39.1709 78.6151 37.5559 78.6151 35.0588Z" fill="black"/>
<path d="M96.1477 35.0588C96.1477 38.8571 93.9238 41.2974 90.5688 41.2974C89.7189 41.3381 88.8737 41.1591 88.1299 40.7809C87.3862 40.4027 86.7739 39.8406 86.3632 39.159H86.2997V45.213H83.5561V28.9468H86.2118V30.9798H86.2622C86.6918 30.3014 87.3144 29.7422 88.0639 29.3617C88.8133 28.9813 89.6615 28.7937 90.5183 28.8189C93.9108 28.8189 96.1477 31.2711 96.1477 35.0588ZM93.3269 35.0588C93.3269 32.5842 91.9284 30.9573 89.7946 30.9573C87.6983 30.9573 86.2882 32.6185 86.2882 35.0588C86.2882 37.5216 87.6983 39.1709 89.7946 39.1709C91.9284 39.1709 93.3269 37.5559 93.3269 35.0588Z" fill="black"/>
<path d="M105.87 36.4985C106.073 38.161 107.839 39.2525 110.252 39.2525C112.565 39.2525 114.229 38.1609 114.229 36.662C114.229 35.3607 113.225 34.5816 110.849 34.0477L108.473 33.5243C105.107 32.7808 103.544 31.3411 103.544 29.005C103.544 26.1126 106.301 24.1258 110.214 24.1258C114.089 24.1258 116.745 26.1126 116.834 29.005H114.065C113.899 27.332 112.386 26.3222 110.176 26.3222C107.966 26.3222 106.453 27.3439 106.453 28.831C106.453 30.0162 107.419 30.7136 109.782 31.2475L111.802 31.701C115.564 32.5144 117.125 33.8961 117.125 36.3481C117.125 39.4845 114.395 41.4488 110.049 41.4488C105.983 41.4488 103.238 39.5306 103.061 36.4984L105.87 36.4985Z" fill="black"/>
<path d="M123.05 26.0543V28.9468H125.591V30.9335H123.05V37.6716C123.05 38.7184 123.559 39.2062 124.676 39.2062C124.978 39.2014 125.279 39.182 125.578 39.1481V41.123C125.076 41.2089 124.565 41.2477 124.054 41.2391C121.348 41.2391 120.293 40.3096 120.293 37.9392V30.9335H118.349V28.9468H120.293V26.0543H123.05Z" fill="black"/>
<path d="M127.062 35.0587C127.062 31.2131 129.539 28.7965 133.402 28.7965C137.277 28.7965 139.742 31.213 139.742 35.0587C139.742 38.9148 137.29 41.3208 133.402 41.3208C129.514 41.3208 127.062 38.9148 127.062 35.0587ZM136.947 35.0587C136.947 32.4207 135.625 30.8637 133.401 30.8637C131.178 30.8637 129.856 32.4325 129.856 35.0587C129.856 37.7072 131.178 39.2523 133.401 39.2523C135.625 39.2523 136.947 37.7072 136.947 35.0587Z" fill="black"/>
<path d="M142.004 28.9469H144.621V31.0272H144.685C144.862 30.3775 145.278 29.8033 145.864 29.4011C146.449 28.999 147.168 28.7934 147.9 28.819C148.216 28.818 148.531 28.8494 148.84 28.9126V31.2593C148.441 31.1477 148.024 31.0965 147.607 31.1076C147.209 31.0929 146.811 31.1571 146.442 31.296C146.073 31.4349 145.742 31.6452 145.47 31.9123C145.199 32.1795 144.993 32.4972 144.869 32.8437C144.744 33.1902 144.703 33.5573 144.748 33.9197V41.1694H142.004L142.004 28.9469Z" fill="black"/>
<path d="M161.49 37.5793C161.121 39.7981 158.758 41.3208 155.734 41.3208C151.846 41.3208 149.432 38.9385 149.432 35.1167C149.432 31.2829 151.859 28.7965 155.619 28.7965C159.317 28.7965 161.643 31.1194 161.643 34.8253V35.6849H152.202V35.8365C152.158 36.2863 152.22 36.7394 152.383 37.1658C152.545 37.5922 152.805 37.982 153.146 38.3095C153.486 38.6369 153.898 38.8944 154.355 39.0649C154.813 39.2355 155.304 39.315 155.798 39.2984C156.446 39.354 157.097 39.2167 157.653 38.9069C158.209 38.5972 158.641 38.1316 158.885 37.5793L161.49 37.5793ZM152.215 33.9315H158.898C158.922 33.527 158.855 33.1223 158.701 32.7427C158.546 32.363 158.307 32.0167 158 31.7254C157.692 31.4341 157.321 31.2042 156.912 31.05C156.502 30.8958 156.062 30.8207 155.619 30.8294C155.172 30.827 154.729 30.9055 154.316 31.0604C153.902 31.2153 153.527 31.4435 153.21 31.7319C152.894 32.0203 152.643 32.3632 152.472 32.7407C152.301 33.1182 152.214 33.5229 152.215 33.9315Z" fill="black"/>
<path d="M55.8453 11.7866C56.4206 11.7488 56.9978 11.8283 57.5353 12.0192C58.0729 12.2102 58.5574 12.5078 58.9539 12.8907C59.3505 13.2736 59.6491 13.7322 59.8284 14.2334C60.0076 14.7346 60.0629 15.2659 59.9904 15.7891C59.9904 18.3625 58.4694 19.8417 55.8453 19.8417H52.6634V11.7866H55.8453ZM54.0316 18.7026H55.6925C56.1035 18.725 56.5149 18.6634 56.8966 18.5222C57.2783 18.381 57.6207 18.1637 57.899 17.8862C58.1773 17.6087 58.3844 17.2779 58.5053 16.918C58.6261 16.558 58.6577 16.178 58.5977 15.8055C58.6533 15.4345 58.6186 15.0568 58.4958 14.6995C58.3731 14.3422 58.1655 14.0141 57.8879 13.7388C57.6102 13.4635 57.2694 13.2478 56.8899 13.1071C56.5103 12.9664 56.1014 12.9042 55.6925 12.9249H54.0316V18.7026Z" fill="black"/>
<path d="M61.536 16.7996C61.4942 16.4001 61.5442 15.997 61.6827 15.6163C61.8213 15.2355 62.0453 14.8854 62.3405 14.5884C62.6357 14.2914 62.9955 14.0541 63.3969 13.8918C63.7982 13.7294 64.2322 13.6455 64.6711 13.6455C65.11 13.6455 65.544 13.7294 65.9454 13.8918C66.3467 14.0541 66.7065 14.2914 67.0017 14.5884C67.2969 14.8854 67.521 15.2355 67.6595 15.6163C67.7981 15.997 67.848 16.4001 67.8062 16.7996C67.8488 17.1995 67.7994 17.6031 67.6613 17.9845C67.5231 18.3659 67.2992 18.7167 67.0039 19.0142C66.7086 19.3118 66.3486 19.5495 65.9468 19.7123C65.5451 19.875 65.1105 19.959 64.6711 19.959C64.2317 19.959 63.7972 19.875 63.3954 19.7123C62.9937 19.5495 62.6336 19.3118 62.3383 19.0142C62.0431 18.7167 61.8191 18.3659 61.681 17.9845C61.5428 17.6031 61.4934 17.1995 61.536 16.7996ZM66.4567 16.7996C66.4567 15.4819 65.8094 14.7113 64.6733 14.7113C63.5328 14.7113 62.8913 15.4819 62.8913 16.7996C62.8913 18.1278 63.5329 18.8925 64.6733 18.8925C65.8094 18.8925 66.4567 18.1225 66.4567 16.7996Z" fill="black"/>
<path d="M76.1411 19.842H74.78L73.4061 15.3649H73.3022L71.934 19.842H70.586L68.7535 13.7631H70.0842L71.2751 18.4016H71.3732L72.74 13.7631H73.9986L75.3654 18.4016H75.4692L76.6543 13.7631H77.9663L76.1411 19.842Z" fill="black"/>
<path d="M79.5077 13.7632H80.7706V14.7288H80.8687C81.035 14.382 81.3155 14.0912 81.6711 13.8971C82.0267 13.703 82.4397 13.6151 82.8525 13.6458C83.176 13.6236 83.5008 13.6682 83.8028 13.7763C84.1049 13.8844 84.3765 14.0533 84.5975 14.2704C84.8185 14.4876 84.9832 14.7474 85.0794 15.0306C85.1757 15.3139 85.201 15.6133 85.1535 15.9067V19.8418H83.8416V16.208C83.8416 15.2311 83.3773 14.7453 82.407 14.7453C82.1874 14.736 81.9682 14.7701 81.7643 14.8455C81.5605 14.9209 81.3769 15.0356 81.2262 15.182C81.0754 15.3283 80.961 15.5027 80.8908 15.6932C80.8207 15.8837 80.7964 16.0858 80.8196 16.2857V19.8419H79.5076L79.5077 13.7632Z" fill="black"/>
<path d="M87.2441 11.39H88.5561V19.842H87.2441V11.39Z" fill="black"/>
<path d="M90.3799 16.7995C90.3382 16.3999 90.3882 15.9968 90.5268 15.616C90.6653 15.2352 90.8894 14.8851 91.1846 14.5881C91.4799 14.2911 91.8397 14.0538 92.2411 13.8914C92.6425 13.7291 93.0765 13.6452 93.5154 13.6452C93.9543 13.6452 94.3884 13.7291 94.7897 13.8914C95.1911 14.0538 95.551 14.2911 95.8462 14.5881C96.1414 14.8851 96.3655 15.2352 96.504 15.616C96.6426 15.9968 96.6926 16.3999 96.6509 16.7995C96.6934 17.1994 96.644 17.603 96.5058 17.9844C96.3675 18.3658 96.1436 18.7166 95.8483 19.0141C95.553 19.3117 95.1929 19.5495 94.7911 19.7122C94.3894 19.8749 93.9548 19.959 93.5154 19.959C93.076 19.959 92.6414 19.8749 92.2397 19.7122C91.8379 19.5495 91.4778 19.3117 91.1825 19.0141C90.8872 18.7166 90.6633 18.3658 90.5251 17.9844C90.3868 17.603 90.3374 17.1994 90.3799 16.7995ZM95.3007 16.7995C95.3007 15.4817 94.6533 14.7111 93.5172 14.7111C92.3768 14.7111 91.7352 15.4817 91.7352 16.7995C91.7352 18.1277 92.3768 18.8924 93.5172 18.8924C94.6533 18.8924 95.3007 18.1224 95.3007 16.7995Z" fill="black"/>
<path d="M98.0321 18.1228C98.0321 17.0285 98.9231 16.3977 100.505 16.308L102.305 16.2131V15.6884C102.305 15.0463 101.841 14.6838 100.944 14.6838C100.212 14.6838 99.7046 14.9296 99.5589 15.3594H98.2887C98.4228 14.3153 99.4969 13.6455 101.005 13.6455C102.672 13.6455 103.612 14.4042 103.612 15.6884V19.842H102.349V18.9877H102.245C102.034 19.2941 101.738 19.5439 101.388 19.7116C101.037 19.8793 100.644 19.9589 100.248 19.9421C99.969 19.9687 99.6869 19.9415 99.4201 19.8622C99.1532 19.783 98.9074 19.6535 98.6987 19.482C98.4899 19.3106 98.3227 19.1011 98.2079 18.867C98.0931 18.6329 98.0332 18.3794 98.0321 18.1228ZM102.305 17.6033V17.0951L100.682 17.19C99.7665 17.246 99.3513 17.5308 99.3513 18.0667C99.3513 18.6139 99.8703 18.9323 100.584 18.9323C100.793 18.9516 101.004 18.9323 101.205 18.8755C101.406 18.8187 101.592 18.7255 101.753 18.6015C101.913 18.4775 102.045 18.3253 102.14 18.1538C102.235 17.9823 102.291 17.7951 102.305 17.6033Z" fill="black"/>
<path d="M105.336 16.7998C105.336 14.879 106.416 13.6622 108.096 13.6622C108.511 13.6447 108.923 13.7357 109.284 13.9245C109.645 14.1134 109.94 14.3923 110.134 14.7286H110.232V11.39H111.544V19.8418H110.287V18.8814H110.183C109.974 19.2155 109.669 19.4909 109.301 19.6779C108.933 19.8648 108.516 19.9562 108.096 19.942C106.404 19.9421 105.336 18.7252 105.336 16.7998ZM106.691 16.7998C106.691 18.0891 107.356 18.865 108.468 18.865C109.573 18.865 110.257 18.0779 110.257 16.8051C110.257 15.5382 109.566 14.7399 108.468 14.7399C107.363 14.7399 106.691 15.521 106.691 16.7998Z" fill="black"/>
<path d="M116.973 16.7996C116.931 16.4001 116.981 15.997 117.119 15.6163C117.258 15.2355 117.482 14.8854 117.777 14.5884C118.072 14.2914 118.432 14.0541 118.833 13.8918C119.235 13.7294 119.669 13.6455 120.108 13.6455C120.547 13.6455 120.981 13.7294 121.382 13.8918C121.783 14.0541 122.143 14.2914 122.438 14.5884C122.733 14.8854 122.958 15.2355 123.096 15.6163C123.235 15.997 123.285 16.4001 123.243 16.7996C123.285 17.1995 123.236 17.6031 123.098 17.9845C122.96 18.3659 122.736 18.7167 122.44 19.0142C122.145 19.3118 121.785 19.5495 121.383 19.7123C120.982 19.875 120.547 19.959 120.108 19.959C119.668 19.959 119.234 19.875 118.832 19.7123C118.43 19.5495 118.07 19.3118 117.775 19.0142C117.48 18.7167 117.256 18.3659 117.118 17.9845C116.979 17.6031 116.93 17.1995 116.973 16.7996ZM121.893 16.7996C121.893 15.4819 121.246 14.7113 120.11 14.7113C118.969 14.7113 118.328 15.4819 118.328 16.7996C118.328 18.1278 118.969 18.8925 120.11 18.8925C121.246 18.8925 121.893 18.1225 121.893 16.7996Z" fill="black"/>
<path d="M125.003 13.7632H126.266V14.7288H126.364C126.531 14.382 126.811 14.0912 127.167 13.8971C127.522 13.703 127.935 13.6151 128.348 13.6458C128.672 13.6236 128.996 13.6682 129.298 13.7763C129.6 13.8844 129.872 14.0533 130.093 14.2704C130.314 14.4876 130.479 14.7474 130.575 15.0306C130.671 15.3139 130.697 15.6133 130.649 15.9067V19.8418H129.337V16.208C129.337 15.2311 128.873 14.7453 127.903 14.7453C127.683 14.736 127.464 14.7701 127.26 14.8455C127.056 14.9209 126.872 15.0356 126.722 15.182C126.571 15.3283 126.457 15.5027 126.386 15.6932C126.316 15.8837 126.292 16.0858 126.315 16.2857V19.8419H125.003V13.7632Z" fill="black"/>
<path d="M138.063 12.2494V13.7906H139.503V14.8011H138.063V17.927C138.063 18.5638 138.35 18.8426 139.003 18.8426C139.17 18.8421 139.337 18.8329 139.503 18.8149V19.8143C139.267 19.8528 139.029 19.8733 138.789 19.8756C137.33 19.8756 136.749 19.4062 136.749 18.2342V14.8011H135.694V13.7905H136.749V12.2494H138.063Z" fill="black"/>
<path d="M141.295 11.39H142.596V14.74H142.699C142.874 14.3899 143.162 14.0975 143.525 13.9026C143.888 13.7077 144.307 13.6199 144.726 13.651C145.048 13.635 145.37 13.6841 145.669 13.7949C145.967 13.9056 146.235 14.0753 146.454 14.2917C146.673 14.5082 146.837 14.7661 146.934 15.0471C147.031 15.3281 147.059 15.6252 147.016 15.9172V19.842H145.703V16.2132C145.703 15.2422 145.208 14.7505 144.281 14.7505C144.056 14.7336 143.829 14.7619 143.617 14.8335C143.404 14.9052 143.212 15.0183 143.052 15.1651C142.893 15.3119 142.77 15.4888 142.693 15.6834C142.617 15.878 142.587 16.0856 142.607 16.2916V19.8419H141.295L141.295 11.39Z" fill="black"/>
<path d="M154.666 18.2003C154.488 18.7558 154.102 19.2364 153.575 19.5579C153.048 19.8794 152.415 20.0214 151.785 19.959C151.347 19.9695 150.912 19.8928 150.51 19.7342C150.108 19.5755 149.748 19.3387 149.456 19.0401C149.163 18.7416 148.946 18.3885 148.818 18.0053C148.69 17.6222 148.655 17.2181 148.714 16.8212C148.656 16.4231 148.692 16.0182 148.82 15.6339C148.947 15.2496 149.164 14.8949 149.455 14.5937C149.745 14.2926 150.103 14.052 150.504 13.8884C150.905 13.7248 151.34 13.6419 151.78 13.6453C153.629 13.6453 154.745 14.8009 154.745 16.7098V17.1284H150.051V17.1957C150.03 17.4188 150.061 17.6433 150.141 17.8549C150.221 18.0665 150.348 18.2605 150.515 18.4245C150.682 18.5885 150.884 18.7188 151.109 18.8071C151.334 18.8954 151.577 18.9397 151.821 18.9372C152.135 18.9716 152.453 18.92 152.735 18.7887C153.016 18.6575 153.249 18.4526 153.403 18.2002L154.666 18.2003ZM150.051 16.2412H153.409C153.425 16.0371 153.395 15.8322 153.32 15.6395C153.245 15.4469 153.126 15.2707 152.972 15.1224C152.818 14.9741 152.632 14.8569 152.425 14.7784C152.218 14.6998 151.996 14.6617 151.772 14.6664C151.545 14.6638 151.32 14.7027 151.11 14.7809C150.9 14.8592 150.709 14.9751 150.549 15.1218C150.388 15.2686 150.261 15.4433 150.176 15.6355C150.09 15.8277 150.048 16.0337 150.051 16.2412Z" fill="black"/>
</svg>
