<svg width="88" height="18" viewBox="0 0 88 18" fill="none" xmlns="http://www.w3.org/2000/svg">
<path fill-rule="evenodd" clip-rule="evenodd" d="M4.17535 1.35191C4.31224 1.57939 4.23849 1.87403 4.01884 2.02264C3.51357 2.36449 3.04291 2.75422 2.61334 3.1854C2.18091 3.61947 1.79029 4.09538 1.44805 4.60648C1.30035 4.82705 1.00664 4.90166 0.779424 4.76496L0.230886 4.43493C0.00367343 4.29823 -0.0708589 4.0021 0.0752228 3.78045C0.485917 3.1573 0.957626 2.5784 1.48177 2.05228C2.00259 1.5295 2.57535 1.05865 3.19173 0.648209C3.41247 0.501224 3.70801 0.575259 3.84489 0.802735L4.17535 1.35191ZM15.9573 3.1854C15.5277 2.75422 15.057 2.36449 14.5518 2.02264C14.3321 1.87403 14.2584 1.57939 14.3952 1.35191L14.7257 0.802735C14.8626 0.575259 15.1581 0.501224 15.3789 0.648209C15.9952 1.05865 16.568 1.5295 17.0888 2.05228C17.613 2.5784 18.0847 3.1573 18.4954 3.78045C18.6415 4.0021 18.5669 4.29823 18.3397 4.43493L17.7912 4.76496C17.564 4.90166 17.2703 4.82705 17.1226 4.60648C16.7803 4.09538 16.3897 3.61947 15.9573 3.1854ZM9.2853 16.31C12.8184 16.31 15.6826 13.4384 15.6826 9.89621C15.6826 6.354 12.8184 3.48248 9.2853 3.48248C5.75216 3.48248 2.88798 6.354 2.88798 9.89621C2.88798 13.4384 5.75216 16.31 9.2853 16.31ZM9.2853 17.9134C10.7229 17.9134 12.0718 17.5331 13.2375 16.8674C13.4773 16.7305 13.7872 16.803 13.9251 17.0426L14.3379 17.7594C14.4704 17.9895 14.7639 18.0683 14.9933 17.9355L15.5474 17.6148C15.7769 17.482 15.8555 17.1878 15.723 16.9577L15.1124 15.8974C15.0036 15.7085 15.0364 15.4709 15.1833 15.3101C16.4866 13.8837 17.282 11.9831 17.282 9.89621C17.282 5.46845 13.7017 1.87904 9.2853 1.87904C4.86887 1.87904 1.28865 5.46845 1.28865 9.89621C1.28865 11.9689 2.07316 13.8578 3.36072 15.2809C3.50626 15.4418 3.53822 15.6783 3.42991 15.8664L2.82206 16.9219C2.68957 17.152 2.76819 17.4462 2.99768 17.579L3.5517 17.8997C3.78119 18.0325 4.07463 17.9537 4.20712 17.7236L4.61079 17.0226C4.7492 16.7823 5.06062 16.7102 5.30051 16.8487C6.47365 17.526 7.83435 17.9134 9.2853 17.9134ZM5.29005 12.5791C5.42254 12.8092 5.71598 12.888 5.94547 12.7552L13.4248 8.42588C13.6543 8.29305 13.7329 7.99886 13.6004 7.76878L13.2806 7.21334C13.1481 6.98327 12.8546 6.90444 12.6251 7.03727L5.1458 11.3665C4.91632 11.4994 4.83769 11.7936 4.97018 12.0236L5.29005 12.5791Z" fill="url(#paint0_linear)"/>
<path fill-rule="evenodd" clip-rule="evenodd" d="M66.5283 12.9669C66.4989 12.9308 66.4443 12.9277 66.411 12.9603L64.9571 14.381C64.8197 14.5152 64.7424 14.6983 64.7424 14.8894V17.0078C64.7424 17.4022 64.4195 17.722 64.0211 17.722H61.8632C61.4649 17.722 61.142 17.4022 61.142 17.0078V1.47701C61.142 1.08254 61.4649 0.76276 61.8632 0.76276H64.0211C64.4195 0.76276 64.7424 1.08254 64.7424 1.47701V10.2279C64.7424 10.2787 64.8037 10.3048 64.8409 10.2699L69.7958 5.62115C69.9298 5.49546 70.1073 5.42541 70.2919 5.42541H72.5776C73.2171 5.42541 73.5402 6.18848 73.0921 6.64023L69.2094 10.554C69.1626 10.6012 69.1584 10.6756 69.1998 10.7276L73.84 16.566C74.2124 17.0345 73.8754 17.722 73.2733 17.722H70.7419C70.5237 17.722 70.3172 17.6242 70.1803 17.4559L66.5283 12.9669ZM36.8623 4.84696C36.8623 4.78774 36.8138 4.73973 36.754 4.73973H32.4138C32.0155 4.73973 31.6925 4.41995 31.6925 4.02547V2.43697C31.6925 2.0425 32.0155 1.72272 32.4138 1.72272H45.0497C45.448 1.72272 45.771 2.0425 45.771 2.43697V4.02547C45.771 4.41994 45.448 4.73973 45.0497 4.73973H40.7208C40.6547 4.73973 40.6012 4.79277 40.6012 4.8582V17.0078C40.6012 17.4022 40.2783 17.722 39.8799 17.722H37.5836C37.1852 17.722 36.8623 17.4022 36.8623 17.0078V4.84696ZM26.2031 8.04434C26.2031 7.64987 26.526 7.33009 26.9243 7.33009H29.0823C29.4806 7.33009 29.8035 7.64987 29.8035 8.04434V17.0078C29.8035 17.4022 29.4806 17.722 29.0823 17.722H26.9243C26.526 17.722 26.2031 17.4022 26.2031 17.0078V8.04434ZM56.3372 6.61393C55.3063 5.69968 53.8292 5.24256 51.9059 5.24256C50.9058 5.24256 49.9288 5.37208 48.9748 5.63112C48.2697 5.82572 47.6384 6.08053 47.0809 6.39554C46.7685 6.57206 46.6738 6.96391 46.8381 7.28073L47.4425 8.44573C47.6503 8.84626 48.1781 8.95695 48.5825 8.751C48.8517 8.61385 49.1441 8.49576 49.4595 8.39671C50.1057 8.18338 50.7596 8.07672 51.4213 8.07672C52.3752 8.07672 53.0907 8.29005 53.5676 8.71669C54.0243 9.11055 54.2623 9.67199 54.2818 10.401C54.2832 10.4553 54.2386 10.4995 54.1838 10.4995H51.4213C49.6057 10.4995 48.2594 10.8271 47.3824 11.4823C46.5207 12.1375 46.0899 13.0365 46.0899 14.1793C46.0899 14.8955 46.2746 15.5354 46.6438 16.0992C47.0131 16.663 47.5439 17.1049 48.2363 17.4249C48.9441 17.7449 49.7749 17.9049 50.7289 17.9049C52.5136 17.9049 53.752 17.371 54.4441 16.3032C54.4641 16.2725 54.5139 16.2861 54.5139 16.3227V17.0078C54.5139 17.4022 54.8368 17.722 55.2351 17.722H57.1623C57.5606 17.722 57.8835 17.4022 57.8835 17.0078V10.7052C57.8835 8.87669 57.368 7.51294 56.3372 6.61393ZM53.2676 15.0936C52.7906 15.3678 52.2444 15.505 51.629 15.505C50.9981 15.505 50.4981 15.3754 50.1288 15.1164C49.7749 14.8421 49.598 14.4764 49.598 14.0193C49.598 13.0594 50.3365 12.5794 51.8136 12.5794H54.2477C54.2673 12.5794 54.2831 12.5951 54.2831 12.6144V13.7115C54.2831 13.7942 54.2694 13.8766 54.2377 13.9531C54.0335 14.4448 53.7102 14.8249 53.2676 15.0936ZM87.9807 11.9197C87.9935 11.7436 87.9999 11.6435 87.9999 11.6194C87.9999 10.3395 87.7152 9.21953 87.1459 8.25957C86.592 7.28438 85.8227 6.53774 84.838 6.01967C83.8533 5.5016 82.7532 5.24256 81.5377 5.24256C80.2914 5.24256 79.1605 5.51684 78.145 6.06538C77.1449 6.59869 76.3525 7.35294 75.7678 8.32814C75.1985 9.2881 74.9139 10.37 74.9139 11.5737C74.9139 12.7927 75.2062 13.8822 75.7909 14.8421C76.3756 15.8021 77.2064 16.5563 78.2835 17.1049C79.3605 17.6382 80.5991 17.9049 81.9992 17.9049C83.9707 17.9049 85.5274 17.3944 86.6693 16.3733C86.9426 16.1289 86.9337 15.7132 86.684 15.4451L85.7072 14.3962C85.4329 14.1016 84.9711 14.0946 84.6396 14.3244C84.3723 14.5096 84.0923 14.6593 83.7994 14.7736C83.3071 14.9564 82.7378 15.0478 82.0916 15.0478C81.153 15.0478 80.3683 14.8269 79.7375 14.385C79.152 13.9749 78.7653 13.427 78.5774 12.7413C78.5548 12.6587 78.6192 12.5794 78.7056 12.5794H87.2628C87.6396 12.5794 87.9536 12.292 87.9807 11.9197ZM79.5067 8.62527C80.0606 8.16815 80.7453 7.93958 81.5607 7.93958C82.3608 7.93958 83.0378 8.17576 83.5917 8.64812C84.1147 9.07973 84.4457 9.65398 84.5846 10.3709C84.5976 10.4382 84.5447 10.4995 84.4754 10.4995H78.5854C78.5359 10.4995 78.4979 10.4557 78.5066 10.4074C78.6411 9.65856 78.9744 9.06453 79.5067 8.62527ZM28.0274 5.81779C29.156 5.81779 30.0709 4.91174 30.0709 3.79407C30.0709 2.6764 29.156 1.77035 28.0274 1.77035C26.8988 1.77035 25.9839 2.6764 25.9839 3.79407C25.9839 4.91174 26.8988 5.81779 28.0274 5.81779Z" fill="url(#paint1_linear)"/>
<defs>
<linearGradient id="paint0_linear" x1="0" y1="0.572201" x2="17.3927" y2="19.1054" gradientUnits="userSpaceOnUse">
<stop stop-color="#4F9AF2"/>
<stop offset="1" stop-color="#1E6BC6"/>
</linearGradient>
<linearGradient id="paint1_linear" x1="25.9839" y1="0.76276" x2="34.7879" y2="32.6134" gradientUnits="userSpaceOnUse">
<stop stop-color="#4F9AF2"/>
<stop offset="1" stop-color="#1E6BC6"/>
</linearGradient>
</defs>
</svg>
