<svg width="147" height="29" viewBox="0 0 147 29" fill="none" xmlns="http://www.w3.org/2000/svg">
<path fill-rule="evenodd" clip-rule="evenodd" d="M6.94783 1.29745C7.1756 1.67597 7.05289 2.16625 6.68739 2.41354C5.84662 2.98238 5.06342 3.6309 4.34863 4.34839C3.62905 5.07068 2.97906 5.8626 2.40957 6.71307C2.16379 7.0801 1.67505 7.20426 1.29697 6.97679L0.384196 6.42762C0.00611261 6.20014 -0.11791 5.70738 0.125171 5.33855C0.808571 4.30163 1.5935 3.33834 2.46567 2.46287C3.33233 1.59295 4.28541 0.809459 5.31107 0.126478C5.67837 -0.118106 6.17017 0.00508867 6.39794 0.383611L6.94783 1.29745ZM26.553 4.34839C25.8382 3.6309 25.055 2.98238 24.2142 2.41354C23.8487 2.16625 23.726 1.67597 23.9538 1.29745L24.5037 0.383611C24.7315 0.00508876 25.2233 -0.118106 25.5906 0.126478C26.6162 0.809459 27.5693 1.59295 28.436 2.46287C29.3081 3.33834 30.0931 4.30162 30.7765 5.33855C31.0195 5.70737 30.8955 6.20014 30.5174 6.42762L29.6047 6.97679C29.2266 7.20426 28.7378 7.0801 28.4921 6.71307C27.9226 5.8626 27.2726 5.07068 26.553 4.34839ZM15.4508 26.1877C21.33 26.1877 26.096 21.4095 26.096 15.5152C26.096 9.62097 21.33 4.84272 15.4508 4.84272C9.57164 4.84272 4.80562 9.62097 4.80562 15.5152C4.80562 21.4095 9.57164 26.1877 15.4508 26.1877ZM15.4508 28.8559C17.8429 28.8559 20.0876 28.223 22.0274 27.1153C22.4263 26.8875 22.942 27.0082 23.1715 27.4068L23.8584 28.5996C24.0789 28.9825 24.5672 29.1137 24.9491 28.8926L25.871 28.359C26.2528 28.138 26.3837 27.6484 26.1632 27.2656L25.1472 25.5013C24.9662 25.187 25.0206 24.7916 25.2652 24.524C27.4339 22.1505 28.7573 18.9878 28.7573 15.5152C28.7573 8.1474 22.7998 2.17459 15.4508 2.17459C8.10184 2.17459 2.14432 8.1474 2.14432 15.5152C2.14432 18.9642 3.44976 22.1074 5.59227 24.4754C5.83444 24.7431 5.88763 25.1366 5.7074 25.4496L4.69593 27.206C4.47546 27.5889 4.6063 28.0784 4.98816 28.2994L5.91006 28.8331C6.29193 29.0541 6.78021 28.9229 7.00068 28.5401L7.67239 27.3737C7.9027 26.9737 8.42092 26.8537 8.8201 27.0842C10.7722 28.2112 13.0364 28.8559 15.4508 28.8559ZM8.80269 19.9796C9.02316 20.3624 9.51145 20.4936 9.89331 20.2725L22.339 13.0686C22.7208 12.8476 22.8517 12.358 22.6312 11.9752L22.0989 11.0509C21.8785 10.6681 21.3902 10.5369 21.0083 10.7579L8.56266 17.9619C8.1808 18.1829 8.04996 18.6725 8.27043 19.0553L8.80269 19.9796Z" fill="url(#paint0_linear)"/>
<path fill-rule="evenodd" clip-rule="evenodd" d="M110.704 20.6249C110.655 20.5648 110.564 20.5596 110.509 20.6139L108.089 22.9779C107.861 23.2012 107.732 23.5059 107.732 23.8239V27.3489C107.732 28.0053 107.195 28.5374 106.532 28.5374H102.941C102.278 28.5374 101.741 28.0053 101.741 27.3489V1.50562C101.741 0.849214 102.278 0.317093 102.941 0.317093H106.532C107.195 0.317093 107.732 0.849213 107.732 1.50562V16.0671C107.732 16.1516 107.834 16.1951 107.896 16.137L116.141 8.40149C116.364 8.19235 116.66 8.07578 116.967 8.07578H120.77C121.834 8.07578 122.372 9.34554 121.626 10.0972L115.165 16.6098C115.087 16.6884 115.081 16.8121 115.149 16.8987L122.871 26.6138C123.491 27.3935 122.93 28.5374 121.928 28.5374H117.716C117.352 28.5374 117.009 28.3746 116.781 28.0946L110.704 20.6249ZM61.3396 7.11323C61.3396 7.01469 61.2589 6.9348 61.1594 6.9348H53.9372C53.2744 6.9348 52.737 6.40268 52.737 5.74627V3.10299C52.737 2.44659 53.2744 1.91447 53.9372 1.91447H74.9635C75.6263 1.91447 76.1636 2.44659 76.1636 3.10299V5.74627C76.1636 6.40268 75.6263 6.9348 74.9635 6.9348H67.7602C67.6502 6.9348 67.5611 7.02306 67.5611 7.13194V27.3489C67.5611 28.0053 67.0238 28.5374 66.361 28.5374H62.5397C61.8769 28.5374 61.3396 28.0053 61.3396 27.3489V7.11323ZM43.6026 12.4337C43.6026 11.7773 44.1399 11.2452 44.8027 11.2452H48.3935C49.0563 11.2452 49.5936 11.7773 49.5936 12.4337V27.3489C49.5936 28.0053 49.0563 28.5374 48.3935 28.5374H44.8027C44.1399 28.5374 43.6026 28.0053 43.6026 27.3489V12.4337ZM93.7459 10.0535C92.0305 8.53218 89.5726 7.77152 86.3723 7.77152C84.7081 7.77152 83.0823 7.98704 81.4949 8.41808C80.3216 8.7419 79.2711 9.16591 78.3435 9.69009C77.8236 9.98382 77.666 10.6359 77.9395 11.163L78.9451 13.1016C79.2909 13.7681 80.1691 13.9523 80.842 13.6096C81.2901 13.3814 81.7765 13.1849 82.3014 13.02C83.3767 12.6651 84.4649 12.4876 85.5658 12.4876C87.1532 12.4876 88.3437 12.8426 89.1374 13.5525C89.8972 14.2079 90.2933 15.1421 90.3257 16.3552C90.3282 16.4456 90.2539 16.5191 90.1626 16.5191H85.5658C82.5446 16.5191 80.3044 17.0642 78.845 18.1545C77.4113 19.2447 76.6944 20.7407 76.6944 22.6423C76.6944 23.834 77.0016 24.899 77.6161 25.8371C78.2306 26.7752 79.1139 27.5105 80.266 28.043C81.4437 28.5755 82.8263 28.8417 84.4137 28.8417C87.3834 28.8417 89.4441 27.9533 90.5958 26.1766C90.629 26.1253 90.712 26.1481 90.712 26.209V27.3489C90.712 28.0053 91.2493 28.5374 91.9121 28.5374H95.1189C95.7817 28.5374 96.319 28.0053 96.319 27.3489V16.8614C96.319 13.8187 95.4613 11.5494 93.7459 10.0535ZM88.6381 24.1637C87.8444 24.62 86.9355 24.8482 85.9114 24.8482C84.8617 24.8482 84.0296 24.6327 83.4151 24.2017C82.8263 23.7453 82.5318 23.1368 82.5318 22.3761C82.5318 20.7787 83.7608 19.98 86.2187 19.98H90.269C90.3015 19.98 90.3279 20.0062 90.3279 20.0384V21.8638C90.3279 22.0015 90.3051 22.1387 90.2523 22.266C89.9126 23.0841 89.3746 23.7166 88.6381 24.1637ZM146.401 18.8824C146.422 18.5893 146.433 18.4227 146.433 18.3827C146.433 16.2528 145.959 14.3892 145.012 12.7918C144.09 11.1691 142.81 9.92671 141.172 9.06464C139.533 8.20256 137.702 7.77152 135.68 7.77152C133.606 7.77152 131.724 8.22791 130.034 9.1407C128.37 10.0281 127.052 11.2832 126.079 12.9059C125.131 14.5033 124.658 16.3035 124.658 18.3066C124.658 20.335 125.144 22.1479 126.117 23.7453C127.09 25.3427 128.473 26.5977 130.265 27.5105C132.057 28.398 134.118 28.8417 136.448 28.8417C139.728 28.8417 142.319 27.9922 144.219 26.2932C144.674 25.8865 144.659 25.1947 144.243 24.7486L142.618 23.0033C142.162 22.5131 141.393 22.5014 140.841 22.8837C140.397 23.1919 139.931 23.4411 139.443 23.6312C138.624 23.9355 137.677 24.0876 136.601 24.0876C135.04 24.0876 133.734 23.7199 132.684 22.9846C131.71 22.3022 131.067 21.3905 130.754 20.2494C130.716 20.112 130.823 19.98 130.967 19.98H145.206C145.833 19.98 146.356 19.5018 146.401 18.8824ZM132.3 13.4004C133.222 12.6397 134.361 12.2594 135.718 12.2594C137.049 12.2594 138.176 12.6524 139.098 13.4384C139.968 14.1566 140.519 15.1122 140.75 16.305C140.772 16.4171 140.683 16.5191 140.568 16.5191H130.767C130.685 16.5191 130.622 16.4462 130.636 16.3658C130.86 15.1198 131.414 14.1313 132.3 13.4004ZM46.6382 8.7287C48.5161 8.7287 50.0385 7.22102 50.0385 5.36121C50.0385 3.5014 48.5161 1.99373 46.6382 1.99373C44.7602 1.99373 43.2378 3.5014 43.2378 5.36121C43.2378 7.22102 44.7602 8.7287 46.6382 8.7287Z" fill="url(#paint1_linear)"/>
<defs>
<linearGradient id="paint0_linear" x1="0" y1="0" x2="28.9416" y2="30.8394" gradientUnits="userSpaceOnUse">
<stop stop-color="#4F9AF2"/>
<stop offset="1" stop-color="#1E6BC6"/>
</linearGradient>
<linearGradient id="paint1_linear" x1="43.2378" y1="0.317093" x2="57.8877" y2="53.3168" gradientUnits="userSpaceOnUse">
<stop stop-color="#4F9AF2"/>
<stop offset="1" stop-color="#1E6BC6"/>
</linearGradient>
</defs>
</svg>
