<svg width="120" height="120" fill="none" xmlns="http://www.w3.org/2000/svg"><circle opacity=".1" cx="60" cy="60" r="60" fill="#1E6BC6"/><path d="M60.08 87.22c.833 0 1.507-.684 1.507-1.529 0-.844-.674-1.53-1.507-1.53-.832 0-1.506.686-1.506 1.53 0 .845.674 1.53 1.507 1.53zm30.315-42.257a1.117 1.117 0 00-1.544-.413 1.152 1.152 0 00-.407 1.568 9.744 9.744 0 011.296 4.848c0 2.462-.859 4.741-2.426 6.416-.821.872-1.959 2.065-3.277 3.41a1.159 1.159 0 00.008 1.621 1.1 1.1 0 00.79.33c.294 0 .58-.115.807-.345a303.904 303.904 0 003.307-3.44c1.966-2.104 3.051-4.94 3.051-8a12.12 12.12 0 00-1.605-5.995z" fill="#1E6BC6"/><path d="M78.914 42.5V30.442c0-1.896-1.522-3.441-3.39-3.441H45.39C43.522 27 42 28.545 42 30.441V88.56c0 1.895 1.522 3.44 3.39 3.44h30.134c1.868 0 3.39-1.545 3.39-3.441v-24.31l-2.26 2.279V79H44.26V36.941h32.394v5.789a7.845 7.845 0 00-4.542 3.242c-1.432-2.118-3.835-3.464-6.464-3.464h-.008a7.72 7.72 0 00-5.537 2.325 7.912 7.912 0 00-2.283 5.613c0 2.026.724 3.915 2.027 5.307 2.772 2.967 11.165 11.28 11.519 11.631.218.214.504.329.79.329.287 0 .573-.107.792-.329.022-.023.746-.742 1.815-1.812l5.417-5.453a359.294 359.294 0 004.226-4.343c1.326-1.407 2.05-3.304 2.05-5.345-.016-4.267-3.368-7.755-7.542-7.93zm-2.26 38.794v7.265c0 .635-.504 1.147-1.13 1.147H45.39c-.625 0-1.13-.513-1.13-1.147v-7.265h32.394zM44.26 34.647v-4.206c0-.634.505-1.147 1.13-1.147h30.134c.626 0 1.13.512 1.13 1.147v4.206H44.26zm38.504 19.554c-2.245 2.393-8.415 8.572-10.615 10.767-2.207-2.195-8.422-8.382-10.667-10.783-.904-.97-1.401-2.294-1.401-3.732 0-1.506.572-2.92 1.62-3.984a5.497 5.497 0 013.94-1.651h.007c2.516 0 4.73 1.728 5.386 4.19.136.505.573.841 1.1.85.512 0 .957-.353 1.085-.857.64-2.478 2.848-4.214 5.371-4.214h.008c3.081 0 5.582 2.539 5.59 5.659 0 1.438-.505 2.776-1.424 3.755z" fill="#1E6BC6"/></svg>