<svg width="120" height="120" fill="none" xmlns="http://www.w3.org/2000/svg"><circle opacity=".1" cx="60" cy="60" r="60" fill="#1E6BC6"/><path d="M93.601 54.093l-31.7-26.824a1.145 1.145 0 00-1.483.007L29.391 54.003a1.118 1.118 0 00-.113 1.588 1.145 1.145 0 001.604.113l6.688-5.76v35.932c0 .622.507 1.124 1.135 1.124h44.433c.628 0 1.135-.502 1.135-1.124v-36.72l7.853 6.645a1.14 1.14 0 001.596-.12 1.112 1.112 0 00-.12-1.588zM82.003 84.76H39.84V47.98l21.327-18.374 20.836 17.633V84.76z" fill="#1E6BC6"/><path d="M47.375 59.164c-1.498 2.555-1.914 5.117-1.226 7.356l2.035 5.514c1.12 2.531 3.64 4.247 7.082 4.823.825.135 1.68.203 2.557.203 2.603 0 5.372-.6 8.035-1.753 3.563-1.543 6.521-3.903 8.337-6.652 1.914-2.899 2.346-5.888 1.249-8.367l-2.104-5.423c-.06-.135-.098-.27-.166-.405-2.497-4.936-10.494-6-17.825-2.374-3.472 1.723-6.31 4.24-7.974 7.078zm25.905 1.82l.053.15c.802 1.82.431 4.053-1.044 6.293-1.574 2.39-4.184 4.457-7.347 5.827-3.162 1.371-6.468 1.866-9.305 1.386-2.663-.442-4.578-1.693-5.357-3.445l-.045-.113c1.074.51 2.3.862 3.67 1.019.559.067 1.134.097 1.724.097 2.837 0 5.894-.756 8.776-2.18 4.419-2.194 7.589-5.595 8.875-9.033zm-9.102-8.846c3.216 0 5.856 1.139 6.96 3.326 1.938 3.835-1.535 9.453-7.747 12.532-3.086 1.528-6.355 2.187-9.222 1.865-2.686-.307-4.66-1.453-5.553-3.228-.9-1.776-.643-4.023.718-6.337 1.453-2.465 3.95-4.667 7.029-6.195 2.663-1.319 5.402-1.963 7.815-1.963z" fill="#1E6BC6"/><path d="M56.825 67.277l7.936-12.315c.159-.27.416-1.199-.447-1.46-1.074-.203-1.702.868-1.702.868l-8.08 12.54s-.787 1.19.484 1.625c.954.248 1.809-1.258 1.809-1.258z" fill="#1E6BC6"/></svg>