<svg width="120" height="120" fill="none" xmlns="http://www.w3.org/2000/svg"><circle opacity=".1" cx="60" cy="60" r="60" fill="#1E6BC6"/><path d="M88.857 35.217H76.783v-5.099A1.13 1.13 0 0075.64 29c-.632 0-1.142.5-1.142 1.118v5.1H45.2v-5.1A1.13 1.13 0 0044.057 29c-.632 0-1.143.5-1.143 1.118v5.1H32.143c-.633 0-1.143.506-1.143 1.117v46.547C31 83.5 31.51 84 32.143 84h56.714C89.49 84 90 83.5 90 82.882V36.335c0-.611-.51-1.118-1.143-1.118zm-1.142 46.547h-54.43v-44.31h9.63v3.384c0 .619.51 1.118 1.142 1.118.632 0 1.143-.5 1.143-1.118v-3.385h29.298v3.385c0 .619.51 1.118 1.142 1.118.633 0 1.143-.5 1.143-1.118v-3.385h10.932v44.31z" fill="#1E6BC6"/><path d="M76.417 67.197l-3.854-3.772a1.153 1.153 0 00-1.615 0c-.45.433-.45 1.14 0 1.58l3.855 3.773-3.855 3.772c-.45.44-.45 1.148 0 1.58a1.162 1.162 0 001.615 0l3.854-3.772 3.855 3.772a1.162 1.162 0 001.615 0c.45-.432.45-1.148 0-1.58l-3.855-3.772 3.855-3.772c.45-.44.45-1.148 0-1.58a1.153 1.153 0 00-1.615 0l-3.855 3.771zM48.27 47.987h-7.047c-.632 0-1.143.5-1.143 1.118v6.896c0 .618.51 1.118 1.143 1.118h7.047c.632 0 1.142-.5 1.142-1.118v-6.896a1.13 1.13 0 00-1.142-1.118zm-1.143 6.895h-4.761v-4.659h4.76v4.66zm17.193-6.895h-7.038c-.633 0-1.143.5-1.143 1.118v6.896c0 .618.51 1.118 1.142 1.118h7.047c.632 0 1.143-.5 1.143-1.118v-6.896a1.14 1.14 0 00-1.15-1.118zm-5.896 6.895v-4.659h4.761v4.66h-4.76zM48.27 63.843h-7.047c-.632 0-1.143.5-1.143 1.118v6.895c0 .62.51 1.119 1.143 1.119h7.047c.632 0 1.142-.5 1.142-1.118V64.96a1.13 1.13 0 00-1.142-1.118zm-1.143 6.895h-4.761V66.08h4.76v4.66zm17.193-6.895h-7.038c-.633 0-1.143.5-1.143 1.118v6.895c0 .62.51 1.119 1.142 1.119h7.047c.632 0 1.143-.5 1.143-1.118V64.96a1.14 1.14 0 00-1.15-1.118zm-5.896 6.895V66.08h4.761v4.66h-4.76zM72.6 47.987c-.631 0-1.142.5-1.142 1.118v6.896c0 .618.51 1.118 1.143 1.118h7.046c.633 0 1.143-.5 1.143-1.118v-6.896a1.13 1.13 0 00-1.143-1.118h-7.046zm5.905 6.895h-4.761v-4.659h4.76v4.66z" fill="#1E6BC6"/></svg>