<svg width="120" height="120" fill="none" xmlns="http://www.w3.org/2000/svg"><circle opacity=".1" cx="60" cy="60" r="60" fill="#1E6BC6"/><path d="M92.288 64.373a3.855 3.855 0 00-4.498-1.375 3.703 3.703 0 00-.66-1.8 3.846 3.846 0 00-5.315-.956l-.63.41a3.786 3.786 0 00-.645-1.702 3.865 3.865 0 00-5.345-.934l-.052.045c-5.068 4.243-11.215 8.553-12.79 8.553-1.162 0-4.715-1.98-7.564-3.57-3.628-2.025-7.062-3.937-8.996-4.094-3.703-.284-14.993 6.252-16.253 7a1.085 1.085 0 00-.39 1.486c.308.515.975.694 1.492.388 4.596-2.689 12.745-6.85 14.994-6.723 1.5.112 5.015 2.084 8.126 3.825 4.108 2.293 6.747 3.735 8.404 3.825.075.007.143.007.217 0h7.497a2.472 2.472 0 012.474 2.465c0 1.36-1.11 2.465-2.474 2.465h-.075c-.075 0-7.384.508-10.39 0-2.826-.47-6.432-3.66-6.47-3.69a1.086 1.086 0 00-1.537.082 1.077 1.077 0 00.083 1.531c.165.15 4.115 3.645 7.564 4.22 1.454.188 2.916.277 4.378.247 3.111 0 6.32-.224 6.522-.239a4.636 4.636 0 004.1-5.117 4.643 4.643 0 00-4.227-4.101h-2.55a97.895 97.895 0 009.177-6.798 1.662 1.662 0 012.301.419 1.654 1.654 0 01-.412 2.3l-.075.06-.083.067-.067.083-.067.09-.045.089-.053.097v.822c.015.037.03.067.053.104l.037.075.038.045c.037.045.075.09.12.134l.067.053.135.09.067.029.165.06h.06c.075.007.158.007.233 0 .09 0 .18-.015.262-.038h.068a.947.947 0 00.247-.12l3.47-2.24a1.67 1.67 0 012.317.403 1.648 1.648 0 01-.404 2.301l-1.117.747a1.145 1.145 0 00-.293 1.591c.36.516 1.072.65 1.597.291l1.102-.746 2.04-1.368a1.66 1.66 0 012.33.247c.578.71.465 1.748-.247 2.323a3.317 3.317 0 01-.202.142c-11.83 8.262-25.242 16.838-27.22 16.86-1.5 0-4.709-1.927-7.572-3.623-3.232-1.92-6.275-3.735-8.427-4.011-4.288-.568-10.915 4.362-11.657 4.96a1.08 1.08 0 00-.203 1.516c.36.47 1.05.56 1.522.202 1.814-1.39 7.152-4.915 10.046-4.534 1.71.224 4.835 2.084 7.602 3.735C57.593 85.095 60.81 87 62.87 87c3.607 0 24.343-14.38 28.488-17.263l.098-.083a3.809 3.809 0 00.832-5.281zM54.107 47.005c4.378.008 7.924-3.526 7.932-7.889.007-4.362-3.539-7.895-7.917-7.903-4.378-.007-7.924 3.526-7.931 7.889v.015c.007 4.355 3.545 7.88 7.916 7.888zm5.743-7.896c0 3.16-2.572 5.722-5.743 5.722a5.747 5.747 0 01-3.066-.889l7.916-7.888c.563.889.893 1.927.893 3.055zm-5.743-5.722c1.23 0 2.369.388 3.299 1.046l-8 7.963a5.667 5.667 0 01-1.049-3.287c.008-3.16 2.579-5.722 5.75-5.722z" fill="#1E6BC6"/><path d="M65.847 43.472l-8.644 8.613a6.049 6.049 0 000 8.575 6.101 6.101 0 008.606 0l8.644-8.613a6.049 6.049 0 000-8.575 6.101 6.101 0 00-8.606 0zm-1.59 15.664a3.915 3.915 0 01-5.517-.007 3.886 3.886 0 010-5.513l.008.008 3.523-3.511 5.525 5.505-3.538 3.518zm8.66-8.62l-3.532 3.51-5.525-5.505 3.539-3.526a3.915 3.915 0 015.517.008 3.886 3.886 0 010 5.513zM70.57 38.422c3.156 0 5.727-2.562 5.727-5.715 0-3.152-2.571-5.707-5.727-5.707-3.164 0-5.735 2.562-5.735 5.715 0 3.152 2.571 5.707 5.735 5.707zm0-9.181a3.476 3.476 0 013.478 3.474 3.483 3.483 0 01-6.964 0 3.483 3.483 0 013.486-3.474z" fill="#1E6BC6"/></svg>