<svg width="120" height="120" fill="none" xmlns="http://www.w3.org/2000/svg"><circle opacity=".1" cx="60" cy="60" r="60" fill="#1E6BC6"/><path d="M99.925 28.739a1.127 1.127 0 00-1.016-.724l-6.644-.158.15-6.7a1.138 1.138 0 00-.673-1.063 1.117 1.117 0 00-1.226.219l-7.944 7.65c-.216.203-.343.49-.343.79l-.172 7.153-1.966 1.982c-5.216-4.876-12.196-7.86-19.856-7.86C44.115 30.027 31 43.253 31 59.517 31 75.772 44.115 89 60.235 89c16.12 0 29.243-13.227 29.243-29.483a29.486 29.486 0 00-6.39-18.358l-1.584 1.612a27.215 27.215 0 015.732 16.746c0 15.013-12.114 27.222-26.994 27.222-14.893 0-27-12.209-27-27.222 0-15.012 12.107-27.229 26.993-27.229 7.04 0 13.46 2.736 18.272 7.205l-4.148 4.183c-3.751-3.4-8.698-5.472-14.124-5.472-11.65 0-21.127 9.564-21.127 21.313 0 11.75 9.476 21.306 21.127 21.306 11.65 0 21.134-9.556 21.134-21.306a21.32 21.32 0 00-4.035-12.503l-1.615 1.636a19.02 19.02 0 013.408 10.867c0 10.499-8.474 19.045-18.892 19.045-10.41 0-18.885-8.546-18.885-19.045 0-10.505 8.475-19.052 18.885-19.052 4.805 0 9.192 1.824 12.532 4.808l-7.024 7.085a8.873 8.873 0 00-5.508-1.914c-4.955 0-8.99 4.07-8.99 9.066 0 4.997 4.035 9.066 8.99 9.066s8.99-4.07 8.99-9.066a9.022 9.022 0 00-.717-3.52l-1.756 1.786c.15.558.231 1.138.231 1.741 0 3.754-3.026 6.806-6.748 6.806-3.722 0-6.748-3.052-6.748-6.806 0-3.753 3.026-6.805 6.748-6.805 1.457 0 2.803.475 3.909 1.266l-4.701 4.74a1.13 1.13 0 00.792 1.93c.284 0 .575-.113.792-.332l2.534-2.555 3.766-3.798 7.025-7.084 1.592-1.605 4.147-4.183 1.585-1.598.657-.663.463-.467.606-.61 7.503.172h.03c.291 0 .568-.112.77-.316l7.944-7.642a1.14 1.14 0 00.276-1.228zm-9.431 6.918l-4.895-.113 3.55-3.58a1.13 1.13 0 000-1.598 1.108 1.108 0 00-1.585 0L84.358 33.6l.105-4.319 3.64-3.504 2.01-1.937L90 28.942a1.125 1.125 0 001.098 1.153l5.06.12-5.665 5.442z" fill="#1E6BC6"/></svg>