<svg width="241" height="235" viewBox="0 0 241 235" fill="none" xmlns="http://www.w3.org/2000/svg">
<path d="M36 102.818C36 76.9375 36 38.1167 41.0367 28.2316C45.4671 19.5365 52.5365 12.4671 61.2316 8.03669C71.1167 3 84.0569 3 109.938 3H131.062C156.943 3 169.883 3 179.768 8.03669C188.464 12.4671 195.533 19.5365 199.963 28.2316C205 38.1167 205 51.0569 205 76.9375V98.0625C205 123.943 205 136.883 199.963 146.768C195.533 155.464 188.464 162.533 179.768 166.963C169.883 172 156.943 172 131.062 172H109.938C84.0569 172 71.1167 172 61.2316 166.963C52.5365 162.533 45.4671 155.464 41.0367 146.768C36 136.883 36 123.943 36 98.0625V102.818Z" fill="url(#paint0_linear)"/>
<g filter="url(#filter0_d)">
<path fill-rule="evenodd" clip-rule="evenodd" d="M89.5286 37.11C90.3582 38.4908 89.9112 40.2793 88.5799 41.1814C85.5175 43.2565 82.6648 45.6222 80.0612 48.2396C77.4402 50.8744 75.0727 53.7633 72.9983 56.8658C72.1031 58.2047 70.3229 58.6576 68.9458 57.8278L65.6211 55.8245C64.2439 54.9947 63.7922 53.1971 64.6776 51.8516C67.1668 48.069 70.0259 44.555 73.2027 41.3613C76.3594 38.1879 79.8309 35.3298 83.5668 32.8383C84.9047 31.9461 86.696 32.3955 87.5256 33.7763L89.5286 37.11ZM160.939 48.2396C158.335 45.6222 155.482 43.2565 152.42 41.1814C151.089 40.2793 150.642 38.4908 151.471 37.11L153.474 33.7763C154.304 32.3955 156.095 31.9461 157.433 32.8383C161.169 35.3298 164.641 38.1879 167.797 41.3613C170.974 44.555 173.833 48.069 176.322 51.8516C177.208 53.1971 176.756 54.9946 175.379 55.8245L172.054 57.8278C170.677 58.6576 168.897 58.2047 168.002 56.8658C165.927 53.7633 163.56 50.8744 160.939 48.2396ZM120.5 127.908C141.914 127.908 159.274 110.477 159.274 88.9755C159.274 67.4736 141.914 50.0429 120.5 50.0429C99.0856 50.0429 81.7258 67.4736 81.7258 88.9755C81.7258 110.477 99.0856 127.908 120.5 127.908ZM120.5 137.641C129.213 137.641 137.389 135.333 144.455 131.292C145.907 130.461 147.786 130.901 148.622 132.355L151.124 136.707C151.927 138.103 153.706 138.582 155.097 137.775L158.454 135.829C159.845 135.022 160.322 133.237 159.519 131.84L155.818 125.404C155.159 124.257 155.357 122.815 156.248 121.839C164.147 113.181 168.968 101.643 168.968 88.9755C168.968 62.0981 147.268 40.3097 120.5 40.3097C93.732 40.3097 72.0322 62.0981 72.0322 88.9755C72.0322 101.557 76.7871 113.023 84.591 121.662C85.4731 122.638 85.6669 124.074 85.0104 125.215L81.3262 131.623C80.5232 133.019 80.9997 134.805 82.3906 135.611L85.7486 137.558C87.1395 138.364 88.918 137.886 89.7211 136.489L92.1677 132.234C93.0066 130.775 94.8942 130.337 96.3481 131.178C103.459 135.289 111.706 137.641 120.5 137.641ZM96.2847 105.261C97.0878 106.658 98.8663 107.136 100.257 106.33L145.59 80.0503C146.98 79.244 147.457 77.4582 146.654 76.0616L144.715 72.6899C143.912 71.2933 142.134 70.8148 140.743 71.6211L95.4105 97.9007C94.0196 98.707 93.543 100.493 94.346 101.889L96.2847 105.261Z" fill="url(#paint1_linear)"/>
</g>
<defs>
<filter id="filter0_d" x="0.22168" y="0.376953" width="240.557" height="233.79" filterUnits="userSpaceOnUse" color-interpolation-filters="sRGB">
<feFlood flood-opacity="0" result="BackgroundImageFix"/>
<feColorMatrix in="SourceAlpha" type="matrix" values="0 0 0 0 0 0 0 0 0 0 0 0 0 0 0 0 0 0 127 0"/>
<feOffset dy="32"/>
<feGaussianBlur stdDeviation="32"/>
<feColorMatrix type="matrix" values="0 0 0 0 0.133333 0 0 0 0 0.176471 0 0 0 0 0.207843 0 0 0 0.16 0"/>
<feBlend mode="normal" in2="BackgroundImageFix" result="effect1_dropShadow"/>
<feBlend mode="normal" in="SourceGraphic" in2="effect1_dropShadow" result="shape"/>
</filter>
<linearGradient id="paint0_linear" x1="36" y1="3" x2="205" y2="172" gradientUnits="userSpaceOnUse">
<stop stop-color="#4F9AF2"/>
<stop offset="1" stop-color="#1E6BC6"/>
</linearGradient>
<linearGradient id="paint1_linear" x1="72.8037" y1="42.6919" x2="162.585" y2="133.628" gradientUnits="userSpaceOnUse">
<stop stop-color="white"/>
<stop offset="1" stop-color="#D5F2FF"/>
</linearGradient>
</defs>
</svg>
