<svg width="169" height="169" viewBox="0 0 169 169" fill="none" xmlns="http://www.w3.org/2000/svg">
<path d="M0 99.8181C0 73.9375 0 35.1167 5.03669 25.2316C9.46709 16.5365 16.5365 9.46709 25.2316 5.03669C35.1167 0 48.0569 0 73.9375 0H95.0625C120.943 0 133.883 0 143.768 5.03669C152.464 9.46709 159.533 16.5365 163.963 25.2316C169 35.1167 169 48.0569 169 73.9375V95.0625C169 120.943 169 133.883 163.963 143.768C159.533 152.464 152.464 159.533 143.768 163.963C133.883 169 120.943 169 95.0625 169H73.9375C48.0569 169 35.1167 169 25.2316 163.963C16.5365 159.533 9.46709 152.464 5.03669 143.768C0 133.883 0 120.943 0 95.0625V99.8181Z" fill="url(#paint0_linear)"/>
<path fill-rule="evenodd" clip-rule="evenodd" d="M53.5286 34.11C54.3582 35.4908 53.9112 37.2793 52.5799 38.1814C49.5175 40.2565 46.6648 42.6222 44.0612 45.2396C41.4402 47.8744 39.0727 50.7633 36.9983 53.8658C36.1031 55.2047 34.3229 55.6576 32.9458 54.8278L29.6211 52.8245C28.2439 51.9947 27.7922 50.1971 28.6776 48.8516C31.1668 45.069 34.0259 41.555 37.2027 38.3613C40.3594 35.1879 43.8309 32.3298 47.5668 29.8383C48.9047 28.9461 50.696 29.3955 51.5256 30.7763L53.5286 34.11ZM124.939 45.2396C122.335 42.6222 119.482 40.2565 116.42 38.1814C115.089 37.2793 114.642 35.4908 115.471 34.11L117.474 30.7763C118.304 29.3955 120.095 28.9461 121.433 29.8383C125.169 32.3298 128.641 35.1879 131.797 38.3613C134.974 41.555 137.833 45.069 140.322 48.8516C141.208 50.1971 140.756 51.9946 139.379 52.8245L136.054 54.8278C134.677 55.6576 132.897 55.2047 132.002 53.8658C129.927 50.7633 127.56 47.8744 124.939 45.2396ZM84.5 124.908C105.914 124.908 123.274 107.477 123.274 85.9755C123.274 64.4736 105.914 47.0429 84.5 47.0429C63.0856 47.0429 45.7258 64.4736 45.7258 85.9755C45.7258 107.477 63.0856 124.908 84.5 124.908ZM84.5 134.641C93.2131 134.641 101.389 132.333 108.455 128.292C109.907 127.461 111.786 127.901 112.622 129.355L115.124 133.707C115.927 135.103 117.706 135.582 119.097 134.775L122.454 132.829C123.845 132.022 124.322 130.237 123.519 128.84L119.818 122.404C119.159 121.257 119.357 119.815 120.248 118.839C128.147 110.181 132.968 98.6433 132.968 85.9755C132.968 59.0981 111.268 37.3097 84.5 37.3097C57.732 37.3097 36.0322 59.0981 36.0322 85.9755C36.0322 98.5569 40.7871 110.023 48.591 118.662C49.4731 119.638 49.6669 121.074 49.0104 122.215L45.3262 128.623C44.5232 130.019 44.9997 131.805 46.3906 132.611L49.7486 134.558C51.1395 135.364 52.918 134.886 53.7211 133.489L56.1677 129.234C57.0066 127.775 58.8942 127.337 60.3481 128.178C67.4585 132.289 75.7057 134.641 84.5 134.641ZM60.2847 102.261C61.0878 103.658 62.8663 104.136 64.2572 103.33L109.59 77.0503C110.98 76.244 111.457 74.4582 110.654 73.0616L108.715 69.6899C107.912 68.2933 106.134 67.8148 104.743 68.6211L59.4105 94.9007C58.0196 95.707 57.543 97.4928 58.346 98.8894L60.2847 102.261Z" fill="url(#paint1_linear)"/>
<defs>
<linearGradient id="paint0_linear" x1="0" y1="0" x2="169" y2="169" gradientUnits="userSpaceOnUse">
<stop stop-color="#4F9AF2"/>
<stop offset="1" stop-color="#1E6BC6"/>
</linearGradient>
<linearGradient id="paint1_linear" x1="36.8037" y1="39.6919" x2="126.585" y2="130.628" gradientUnits="userSpaceOnUse">
<stop stop-color="white"/>
<stop offset="1" stop-color="#D5F2FF"/>
</linearGradient>
</defs>
</svg>
