<svg width="251" height="77" viewBox="0 0 251 77" fill="none" xmlns="http://www.w3.org/2000/svg">
<path d="M230.846 0.000248949H20.1648C19.3968 0.000248949 18.6381 0.000248949 17.8721 0.00407893C17.231 0.00790891 16.5949 0.019035 15.9476 0.0283993C14.5414 0.0435312 13.1384 0.156658 11.751 0.366797C10.3655 0.581511 9.02335 0.986307 7.77004 1.5675C6.51827 2.1536 5.37448 2.91518 4.38019 3.82462C3.38067 4.73149 2.5475 5.77972 1.9127 6.92899C1.27615 8.07597 0.834771 9.30507 0.603795 10.5738C0.370623 11.841 0.245151 13.1228 0.228505 14.4076C0.209071 14.9948 0.207018 15.5839 0.196777 16.1711V60.4346C0.207018 61.0292 0.209071 61.6053 0.228505 62.2001C0.245156 63.4849 0.370628 64.7666 0.603795 66.0337C0.834133 67.3032 1.27554 68.533 1.9127 69.6804C2.54721 70.826 3.3805 71.8699 4.38019 72.7718C5.37071 73.6852 6.51524 74.4473 7.77004 75.029C9.02334 75.6117 10.3653 76.0189 11.751 76.2369C13.1387 76.4454 14.5415 76.5586 15.9476 76.5755C16.5949 76.5885 17.231 76.596 17.8721 76.596C18.638 76.5998 19.3969 76.5998 20.1648 76.5998H230.846C231.599 76.5998 232.364 76.5998 233.117 76.596C233.755 76.596 234.409 76.5885 235.047 76.5755C236.451 76.5595 237.851 76.4463 239.236 76.2369C240.626 76.0174 241.973 75.6103 243.232 75.029C244.486 74.447 245.629 73.6849 246.619 72.7718C247.616 71.8664 248.451 70.8232 249.093 69.6804C249.726 68.5322 250.163 67.3025 250.39 66.0337C250.624 64.7664 250.753 63.485 250.779 62.2001C250.787 61.6053 250.787 61.0292 250.787 60.4346C250.803 59.7389 250.803 59.047 250.803 58.34V18.2618C250.803 17.5606 250.803 16.8649 250.787 16.1711C250.787 15.5839 250.787 14.9948 250.779 14.4076C250.753 13.1226 250.624 11.8411 250.39 10.5738C250.162 9.30572 249.725 8.07672 249.093 6.92891C247.801 4.62532 245.751 2.75022 243.232 1.56732C241.973 0.987555 240.626 0.582866 239.236 0.366625C237.851 0.15556 236.451 0.0423936 235.047 0.0281312C234.409 0.018786 233.755 0.00756421 233.117 0.00382998C232.364 0 231.599 0 230.846 0V0.000248949Z" fill="black"/>
<path d="M17.8824 74.924C17.2443 74.924 16.6217 74.9166 15.9886 74.9035C14.6772 74.8879 13.3688 74.7835 12.0742 74.5912C10.867 74.4011 9.69763 74.0475 8.60454 73.542C7.52149 73.0407 6.53365 72.3834 5.67888 71.5952C4.81173 70.8163 4.0898 69.913 3.54168 68.9209C2.98752 67.9224 2.604 66.8522 2.4045 65.7474C2.18905 64.5603 2.07249 63.36 2.05581 62.1568C2.04253 61.7529 2.02515 60.4082 2.02515 60.4082V16.171C2.02515 16.171 2.04366 14.8469 2.05591 14.4579C2.07188 13.2566 2.18777 12.0582 2.40257 10.8729C2.60244 9.76516 2.98625 8.69181 3.54071 7.69005C4.08682 6.69868 4.80475 5.79465 5.66667 5.01299C6.52762 4.2239 7.51862 3.5632 8.60352 3.05497C9.69409 2.55111 10.8613 2.19998 12.066 2.01334C13.3648 1.81909 14.6778 1.71407 15.9938 1.69916L17.8835 1.67578H233.106L235.019 1.7001C236.323 1.71427 237.624 1.81835 238.911 2.01146C240.128 2.20044 241.307 2.55402 242.41 3.06058C244.583 4.08481 246.352 5.70523 247.468 7.69472C248.013 8.68957 248.391 9.75417 248.588 10.8524C248.806 12.0473 248.927 13.2552 248.952 14.4664C248.958 15.0087 248.958 15.5912 248.958 16.171C248.975 16.8891 248.975 17.5726 248.975 18.2617V58.3399C248.975 59.0356 248.975 59.7144 248.958 60.3989C248.958 61.0216 248.958 61.5921 248.95 62.1792C248.926 63.3688 248.806 64.5551 248.592 65.7286C248.397 66.8414 248.015 67.92 247.461 68.9267C246.909 69.908 246.192 70.8035 245.335 71.5803C244.479 72.3727 243.489 73.0338 242.404 73.5383C241.304 74.0477 240.126 74.4026 238.911 74.5912C237.616 74.7845 236.308 74.8889 234.996 74.9035C234.383 74.9166 233.74 74.924 233.117 74.924L230.847 74.9279L17.8824 74.924Z" fill="white"/>
<path d="M52.5462 38.0879C52.5696 36.4258 53.0524 34.7961 53.9497 33.3504C54.847 31.9048 56.1297 30.6901 57.6783 29.8196C56.6945 28.5348 55.3966 27.4775 53.8878 26.7316C52.379 25.9857 50.7007 25.5718 48.9863 25.5228C45.3293 25.1718 41.7839 27.5238 39.9203 27.5238C38.0207 27.5238 35.1514 25.5576 32.0617 25.6157C30.0632 25.6748 28.1155 26.2062 26.4084 27.1582C24.7012 28.1102 23.2929 29.4503 22.3206 31.048C18.1088 37.716 21.2504 47.5158 25.285 52.9057C27.3036 55.545 29.6628 58.4932 32.7497 58.3886C35.7705 58.274 36.8987 56.6273 40.5449 56.6273C44.1574 56.6273 45.2158 58.3886 48.3654 58.3221C51.6068 58.274 53.6491 55.6711 55.5969 53.0068C57.0472 51.1262 58.1633 49.0478 58.9037 46.8484C57.0205 46.1201 55.4135 44.901 54.2829 43.3432C53.1524 41.7853 52.5484 39.9576 52.5462 38.0879Z" fill="black"/>
<path d="M46.5972 21.9779C48.3646 20.0379 49.2353 17.5444 49.0244 15.0269C46.3243 15.2862 43.8302 16.4662 42.039 18.3317C41.1632 19.2431 40.4924 20.3034 40.065 21.4519C39.6377 22.6005 39.462 23.8148 39.5482 25.0255C40.8987 25.0382 42.2348 24.7705 43.4558 24.2426C44.6768 23.7147 45.7509 22.9404 46.5972 21.9779Z" fill="black"/>
<path d="M88.7872 51.9719H78.8743L76.4938 58.3994H72.295L81.6844 34.6191H86.0467L95.4361 58.3994H91.1658L88.7872 51.9719ZM79.901 49.0059H87.7586L83.8851 38.5744H83.7766L79.901 49.0059Z" fill="black"/>
<path d="M115.714 49.7316C115.714 55.1195 112.56 58.5811 107.801 58.5811C106.596 58.6388 105.397 58.3848 104.342 57.8484C103.287 57.3119 102.418 56.5146 101.835 55.5477H101.745V64.1354H97.8535V41.0616H101.621V43.9453H101.692C102.302 42.9831 103.185 42.1899 104.248 41.6502C105.311 41.1104 106.514 40.8443 107.73 40.8801C112.542 40.8802 115.714 44.3586 115.714 49.7316ZM111.714 49.7316C111.714 46.2213 109.73 43.9135 106.703 43.9135C103.729 43.9135 101.729 46.2699 101.729 49.7316C101.729 53.225 103.729 55.5646 106.703 55.5646C109.73 55.5646 111.714 53.2736 111.714 49.7316Z" fill="black"/>
<path d="M136.584 49.7316C136.584 55.1195 133.429 58.5811 128.67 58.5811C127.465 58.6388 126.266 58.3848 125.211 57.8484C124.155 57.3119 123.287 56.5146 122.704 55.5477H122.614V64.1354H118.722V41.0616H122.49V43.9453H122.561C123.17 42.9831 124.054 42.1899 125.117 41.6502C126.18 41.1104 127.383 40.8443 128.598 40.8801C133.411 40.8802 136.584 44.3586 136.584 49.7316ZM132.582 49.7316C132.582 46.2213 130.599 43.9135 127.572 43.9135C124.598 43.9135 122.598 46.2699 122.598 49.7316C122.598 53.225 124.598 55.5646 127.572 55.5646C130.599 55.5646 132.582 53.2736 132.582 49.7316Z" fill="black"/>
<path d="M150.374 51.7738C150.663 54.132 153.168 55.6804 156.592 55.6804C159.872 55.6804 162.232 54.1319 162.232 52.0056C162.232 50.1598 160.809 49.0546 157.438 48.2972L154.068 47.5548C149.293 46.5001 147.076 44.4579 147.076 41.1441C147.076 37.0411 150.986 34.2229 156.536 34.2229C162.034 34.2229 165.801 37.0411 165.928 41.1441H161.999C161.764 38.771 159.619 37.3385 156.483 37.3385C153.348 37.3385 151.203 38.7878 151.203 40.8973C151.203 42.5785 152.573 43.5678 155.925 44.3251L158.79 44.9684C164.126 46.1222 166.341 48.0821 166.341 51.5605C166.341 56.0094 162.467 58.7958 156.303 58.7958C150.536 58.7958 146.642 56.0749 146.39 51.7736L150.374 51.7738Z" fill="black"/>
<path d="M174.745 36.9585V41.0615H178.35V43.8798H174.745V53.4379C174.745 54.9227 175.467 55.6147 177.052 55.6147C177.48 55.6078 177.907 55.5803 178.332 55.5323V58.3337C177.619 58.4555 176.895 58.5106 176.17 58.4983C172.331 58.4983 170.834 57.1799 170.834 53.8174V43.8798H168.077V41.0615H170.834V36.9585H174.745Z" fill="black"/>
<path d="M180.436 49.7313C180.436 44.2763 183.95 40.8484 189.429 40.8484C194.926 40.8484 198.424 44.2762 198.424 49.7313C198.424 55.2013 194.945 58.6142 189.429 58.6142C183.915 58.6142 180.436 55.2013 180.436 49.7313ZM194.458 49.7313C194.458 45.9893 192.583 43.7807 189.429 43.7807C186.275 43.7807 184.4 46.0061 184.4 49.7313C184.4 53.4883 186.275 55.6801 189.429 55.6801C192.583 55.6801 194.458 53.4883 194.458 49.7313Z" fill="black"/>
<path d="M201.632 41.0616H205.344V44.0126H205.434C205.686 43.091 206.276 42.2765 207.107 41.706C207.937 41.1356 208.957 40.844 209.995 40.8802C210.444 40.8788 210.891 40.9233 211.329 41.013V44.3418C210.762 44.1836 210.172 44.1109 209.58 44.1267C209.014 44.1058 208.451 44.1969 207.928 44.394C207.404 44.591 206.934 44.8892 206.549 45.2682C206.163 45.6471 205.872 46.0978 205.695 46.5894C205.519 47.0809 205.46 47.6016 205.524 48.1157V58.3995H201.632L201.632 41.0616Z" fill="black"/>
<path d="M229.273 53.3069C228.749 56.4543 225.397 58.6142 221.108 58.6142C215.593 58.6142 212.169 55.235 212.169 49.8136C212.169 44.3754 215.611 40.8484 220.945 40.8484C226.191 40.8484 229.49 44.1435 229.49 49.4003V50.6196H216.098V50.8347C216.036 51.4727 216.123 52.1155 216.354 52.7203C216.585 53.3252 216.954 53.8782 217.436 54.3427C217.919 54.8071 218.503 55.1724 219.152 55.4143C219.801 55.6562 220.498 55.7691 221.198 55.7455C222.118 55.8243 223.041 55.6295 223.83 55.1902C224.619 54.7508 225.232 54.0903 225.577 53.3069L229.273 53.3069ZM216.116 48.1324H225.596C225.63 47.5587 225.535 46.9845 225.316 46.446C225.097 45.9075 224.758 45.4163 224.322 45.0031C223.885 44.5899 223.36 44.2637 222.778 44.045C222.197 43.8263 221.573 43.7197 220.945 43.7321C220.311 43.7286 219.683 43.84 219.096 44.0597C218.51 44.2794 217.977 44.6032 217.528 45.0123C217.079 45.4214 216.723 45.9077 216.481 46.4432C216.238 46.9788 216.115 47.5528 216.116 48.1324Z" fill="black"/>
<path d="M79.4143 16.7195C80.2303 16.666 81.049 16.7787 81.8116 17.0495C82.5741 17.3204 83.2614 17.7426 83.8239 18.2857C84.3864 18.8289 84.81 19.4794 85.0643 20.1903C85.3185 20.9013 85.397 21.655 85.2942 22.3971C85.2942 26.0475 83.1365 28.1459 79.4143 28.1459H74.9006V16.7195H79.4143ZM76.8415 26.5299H79.1975C79.7806 26.5618 80.364 26.4744 80.9055 26.2741C81.4469 26.0737 81.9327 25.7655 82.3275 25.3719C82.7222 24.9782 83.016 24.509 83.1874 23.9985C83.3589 23.4879 83.4037 22.9488 83.3185 22.4204C83.3975 21.8941 83.3482 21.3583 83.1741 20.8515C83 20.3447 82.7055 19.8793 82.3117 19.4888C81.9178 19.0983 81.4344 18.7923 80.896 18.5927C80.3576 18.3931 79.7776 18.3048 79.1975 18.3342H76.8415V26.5299Z" fill="black"/>
<path d="M87.4866 23.8305C87.4273 23.2639 87.4982 22.6921 87.6947 22.152C87.8912 21.6118 88.2091 21.1152 88.6278 20.6939C89.0465 20.2727 89.5569 19.9361 90.1262 19.7057C90.6956 19.4754 91.3112 19.3564 91.9338 19.3564C92.5564 19.3564 93.172 19.4754 93.7414 19.7057C94.3107 19.9361 94.8211 20.2727 95.2398 20.6939C95.6585 21.1152 95.9764 21.6118 96.1729 22.152C96.3694 22.6921 96.4403 23.2639 96.381 23.8305C96.4414 24.3978 96.3714 24.9703 96.1754 25.5114C95.9794 26.0524 95.6617 26.5499 95.2429 26.972C94.8241 27.3941 94.3133 27.7314 93.7434 27.9622C93.1735 28.193 92.5571 28.3123 91.9338 28.3123C91.3105 28.3123 90.6941 28.193 90.1242 27.9622C89.5543 27.7314 89.0435 27.3941 88.6247 26.972C88.2059 26.5499 87.8882 26.0524 87.6922 25.5114C87.4962 24.9703 87.4262 24.3978 87.4866 23.8305ZM94.4667 23.8305C94.4667 21.9614 93.5484 20.8683 91.9369 20.8683C90.3191 20.8683 89.4091 21.9614 89.4091 23.8306C89.4091 25.7147 90.3192 26.7993 91.9369 26.7993C93.5485 26.7993 94.4667 25.7072 94.4667 23.8305Z" fill="black"/>
<path d="M108.204 28.1462H106.273L104.324 21.7953H104.177L102.236 28.1462H100.324L97.7247 19.5232H99.6124L101.302 26.103H101.441L103.38 19.5232H105.165L107.104 26.103H107.251L108.932 19.5232H110.793L108.204 28.1462Z" fill="black"/>
<path d="M112.98 19.5233H114.771V20.8931H114.91C115.146 20.4011 115.544 19.9887 116.049 19.7133C116.553 19.438 117.139 19.3134 117.724 19.3569C118.183 19.3253 118.644 19.3886 119.072 19.542C119.501 19.6953 119.886 19.9349 120.2 20.2429C120.513 20.5509 120.747 20.9195 120.883 21.3213C121.02 21.723 121.056 22.1478 120.988 22.564V28.146H119.127V22.9913C119.127 21.6056 118.469 20.9165 117.092 20.9165C116.781 20.9032 116.47 20.9517 116.181 21.0586C115.892 21.1655 115.631 21.3283 115.417 21.5359C115.204 21.7434 115.041 21.9908 114.942 22.2611C114.842 22.5313 114.808 22.8181 114.841 23.1016V28.1461H112.98L112.98 19.5233Z" fill="black"/>
<path d="M123.954 16.157H125.815V28.1462H123.954V16.157Z" fill="black"/>
<path d="M128.402 23.8303C128.343 23.2636 128.414 22.6918 128.61 22.1516C128.807 21.6114 129.125 21.1148 129.544 20.6935C129.962 20.2722 130.473 19.9356 131.042 19.7053C131.612 19.4749 132.227 19.356 132.85 19.356C133.472 19.356 134.088 19.4749 134.658 19.7053C135.227 19.9356 135.737 20.2722 136.156 20.6935C136.575 21.1148 136.893 21.6114 137.089 22.1516C137.286 22.6918 137.357 23.2636 137.298 23.8303C137.358 24.3976 137.288 24.9702 137.092 25.5113C136.896 26.0523 136.578 26.5498 136.159 26.9719C135.74 27.394 135.229 27.7313 134.66 27.9621C134.09 28.1929 133.473 28.3122 132.85 28.3122C132.227 28.3122 131.61 28.1929 131.04 27.9621C130.47 27.7313 129.96 27.394 129.541 26.9719C129.122 26.5498 128.804 26.0523 128.608 25.5113C128.412 24.9702 128.342 24.3976 128.402 23.8303ZM135.382 23.8303C135.382 21.9611 134.464 20.8681 132.852 20.8681C131.235 20.8681 130.325 21.9611 130.325 23.8304C130.325 25.7145 131.235 26.7992 132.852 26.7992C134.464 26.7992 135.382 25.707 135.382 23.8303Z" fill="black"/>
<path d="M139.257 25.7075C139.257 24.1553 140.521 23.2604 142.764 23.1332L145.319 22.9986V22.2543C145.319 21.3435 144.66 20.8292 143.388 20.8292C142.349 20.8292 141.629 21.178 141.423 21.7877H139.621C139.811 20.3065 141.335 19.3564 143.474 19.3564C145.838 19.3564 147.172 20.4327 147.172 22.2543V28.1462H145.38V26.9344H145.233C144.934 27.3691 144.514 27.7234 144.017 27.9613C143.519 28.1992 142.961 28.312 142.4 28.2883C142.004 28.326 141.604 28.2873 141.226 28.1749C140.847 28.0625 140.499 27.8788 140.202 27.6357C139.906 27.3925 139.669 27.0953 139.506 26.7632C139.343 26.4311 139.258 26.0715 139.257 25.7075ZM145.319 24.9707V24.2497L143.016 24.3844C141.717 24.4638 141.128 24.8678 141.128 25.628C141.128 26.4041 141.864 26.8558 142.877 26.8558C143.174 26.8832 143.473 26.8559 143.758 26.7752C144.043 26.6946 144.307 26.5625 144.535 26.3866C144.763 26.2107 144.949 25.9947 145.084 25.7515C145.219 25.5082 145.299 25.2427 145.319 24.9707Z" fill="black"/>
<path d="M149.618 23.8308C149.618 21.1061 151.15 19.3801 153.532 19.3801C154.122 19.3552 154.706 19.4843 155.219 19.7522C155.731 20.0201 156.149 20.4157 156.424 20.8929H156.563V16.157H158.424V28.146H156.641V26.7836H156.494C156.197 27.2576 155.764 27.6483 155.242 27.9135C154.72 28.1786 154.129 28.3082 153.532 28.2881C151.133 28.2882 149.618 26.5621 149.618 23.8308ZM151.54 23.8308C151.54 25.6598 152.483 26.7603 154.06 26.7603C155.629 26.7603 156.598 25.6439 156.598 23.8383C156.598 22.0412 155.618 20.9088 154.06 20.9088C152.493 20.9088 151.54 22.0169 151.54 23.8308Z" fill="black"/>
<path d="M166.124 23.8305C166.065 23.2639 166.136 22.6921 166.332 22.152C166.529 21.6118 166.847 21.1152 167.265 20.6939C167.684 20.2727 168.195 19.9361 168.764 19.7057C169.333 19.4754 169.949 19.3564 170.571 19.3564C171.194 19.3564 171.81 19.4754 172.379 19.7057C172.948 19.9361 173.459 20.2727 173.877 20.6939C174.296 21.1152 174.614 21.6118 174.811 22.152C175.007 22.6921 175.078 23.2639 175.019 23.8305C175.079 24.3978 175.009 24.9703 174.813 25.5114C174.617 26.0524 174.299 26.5499 173.881 26.972C173.462 27.3941 172.951 27.7314 172.381 27.9622C171.811 28.193 171.195 28.3123 170.571 28.3123C169.948 28.3123 169.332 28.193 168.762 27.9622C168.192 27.7314 167.681 27.3941 167.262 26.972C166.843 26.5499 166.526 26.0524 166.33 25.5114C166.134 24.9703 166.064 24.3978 166.124 23.8305ZM173.104 23.8305C173.104 21.9614 172.186 20.8683 170.574 20.8683C168.957 20.8683 168.047 21.9614 168.047 23.8306C168.047 25.7147 168.957 26.7993 170.574 26.7993C172.186 26.7993 173.104 25.7072 173.104 23.8305Z" fill="black"/>
<path d="M177.516 19.5233H179.307V20.8931H179.446C179.682 20.4011 180.08 19.9887 180.585 19.7133C181.089 19.438 181.675 19.3134 182.261 19.3569C182.719 19.3253 183.18 19.3886 183.609 19.542C184.037 19.6953 184.422 19.9349 184.736 20.2429C185.049 20.5509 185.283 20.9195 185.42 21.3213C185.556 21.723 185.592 22.1478 185.525 22.564V28.146H183.664V22.9913C183.664 21.6056 183.005 20.9165 181.629 20.9165C181.317 20.9032 181.006 20.9517 180.717 21.0586C180.428 21.1655 180.167 21.3283 179.954 21.5359C179.74 21.7434 179.577 21.9908 179.478 22.2611C179.378 22.5313 179.344 22.8181 179.377 23.1016V28.1461H177.516V19.5233Z" fill="black"/>
<path d="M196.041 17.376V19.5622H198.084V20.9957H196.041V25.4298C196.041 26.3331 196.448 26.7286 197.374 26.7286C197.611 26.7279 197.848 26.7148 198.084 26.6893V28.1069C197.75 28.1616 197.411 28.1907 197.072 28.1939C195.002 28.1939 194.178 27.5281 194.178 25.8655V20.9956H192.681V19.5621H194.178V17.376H196.041Z" fill="black"/>
<path d="M200.626 16.157H202.471V20.9089H202.618C202.866 20.4123 203.274 19.9975 203.789 19.7211C204.304 19.4447 204.899 19.3201 205.494 19.3642C205.95 19.3415 206.406 19.4112 206.83 19.5683C207.254 19.7254 207.634 19.9661 207.944 20.2731C208.254 20.5801 208.487 20.946 208.625 21.3446C208.762 21.7432 208.802 22.1646 208.741 22.5789V28.1462H206.878V22.9987C206.878 21.6214 206.177 20.9238 204.862 20.9238C204.542 20.8999 204.22 20.9401 203.919 21.0417C203.618 21.1433 203.345 21.3038 203.119 21.512C202.892 21.7203 202.719 21.9712 202.61 22.2472C202.501 22.5232 202.459 22.8177 202.487 23.11V28.1462H200.626L200.626 16.157Z" fill="black"/>
<path d="M219.593 25.8174C219.34 26.6055 218.792 27.2872 218.045 27.7433C217.298 28.1993 216.4 28.4007 215.507 28.3122C214.885 28.3272 214.268 28.2183 213.697 27.9933C213.127 27.7682 212.616 27.4323 212.202 27.0088C211.787 26.5853 211.479 26.0844 211.297 25.5409C211.116 24.9974 211.066 24.4242 211.151 23.8613C211.068 23.2965 211.119 22.7222 211.3 22.177C211.481 21.6319 211.788 21.1287 212.2 20.7015C212.613 20.2743 213.121 19.9331 213.69 19.701C214.259 19.4689 214.876 19.3512 215.499 19.3561C218.123 19.3561 219.706 20.9954 219.706 23.7032V24.297H213.046V24.3924C213.017 24.7088 213.061 25.0274 213.174 25.3275C213.287 25.6277 213.468 25.9029 213.705 26.1355C213.941 26.3681 214.228 26.5529 214.547 26.6782C214.866 26.8034 215.211 26.8663 215.558 26.8628C216.003 26.9116 216.454 26.8383 216.854 26.6522C217.253 26.466 217.583 26.1754 217.801 25.8174L219.593 25.8174ZM213.046 23.0384H217.81C217.833 22.749 217.79 22.4583 217.683 22.185C217.577 21.9117 217.409 21.6618 217.19 21.4514C216.971 21.241 216.707 21.0748 216.414 20.9634C216.121 20.852 215.806 20.7979 215.488 20.8045C215.166 20.8008 214.847 20.8561 214.549 20.9671C214.251 21.078 213.98 21.2424 213.752 21.4506C213.525 21.6588 213.345 21.9066 213.224 22.1792C213.103 22.4519 213.042 22.7441 213.046 23.0384Z" fill="black"/>
</svg>
