<svg width="15" height="11" viewBox="0 0 15 11" fill="none" xmlns="http://www.w3.org/2000/svg">
<g clip-path="url(#clip0)">
<path d="M-3.76489 0H18.7951V11.0293H-3.76489V0Z" fill="#012169"/>
<path d="M-3.76489 0V1.23218L16.2725 11.0293H18.7951V9.79714L-1.24232 0H-3.76489ZM18.7951 0V1.23218L-1.24232 11.0293H-3.76489V9.79714L16.2725 0H18.7951Z" fill="white"/>
<path d="M5.63584 0V11.0293H9.39437V0H5.63584ZM-3.76489 3.67716V7.35217H18.7951V3.67716H-3.76489Z" fill="white"/>
<path d="M-3.76489 4.41173V6.6176H18.7951V4.41173H-3.76489ZM6.3871 0V11.0293H8.64311V0H6.3871ZM-3.76489 11.0293L3.75437 7.35217H5.43756L-2.08391 11.0293H-3.76489ZM-3.76489 0L3.75437 3.67716H2.07339L-3.76489 0.822891V0ZM9.59486 3.67716L17.1141 0H18.7951L11.2758 3.67716H9.59486ZM18.7951 11.0293L11.2758 7.35217H12.9568L18.7951 10.2064V11.0293Z" fill="#C8102E"/>
<path d="M0 0H15V11H0V0Z" fill="#ED2939"/>
<path d="M4.21875 0H7.03125V11H4.21875V0Z" fill="white"/>
<path d="M0 4.125H15V6.875H0V4.125Z" fill="white"/>
<path d="M4.92188 0H6.32812V11H4.92188V0Z" fill="#002664"/>
<path d="M0 4.8125H15V6.1875H0V4.8125Z" fill="#002664"/>
</g>
<defs>
<clipPath id="clip0">
<rect width="15" height="11" fill="white"/>
</clipPath>
</defs>
</svg>
