<svg width="177" height="54" fill="none" xmlns="http://www.w3.org/2000/svg"><path d="M162.599 0H14.077C13.535 0 13 0 12.46.003c-.452.003-.9.01-1.356.017-.992.01-1.98.09-2.959.239-.976.15-1.923.436-2.806.846a9.517 9.517 0 00-2.39 1.591 8.526 8.526 0 00-1.74 2.189 8.39 8.39 0 00-.922 2.57 16.081 16.081 0 00-.265 2.702C.01 10.57.007 10.986 0 11.4v31.204c.007.42.009.825.022 1.245.012.906.1 1.809.265 2.702.162.895.473 1.762.923 2.571a8.463 8.463 0 001.74 2.18 9.277 9.277 0 002.389 1.59c.883.411 1.83.698 2.806.852a21.7 21.7 0 002.959.239c.456.009.905.014 1.357.014C13 54 13.534 54 14.076 54h148.522c.531 0 1.07 0 1.601-.003.45 0 .911-.005 1.361-.014a21.424 21.424 0 002.953-.239c.98-.155 1.929-.442 2.817-.851a9.263 9.263 0 002.387-1.592 8.724 8.724 0 001.745-2.179c.446-.81.754-1.676.914-2.57.164-.894.256-1.797.274-2.703.006-.42.006-.826.006-1.245.011-.49.011-.978.011-1.477V12.874c0-.495 0-.985-.011-1.474 0-.414 0-.83-.006-1.243-.018-.906-.11-1.81-.274-2.703a8.432 8.432 0 00-.914-2.57c-.912-1.623-2.357-2.945-4.132-3.78a10.669 10.669 0 00-2.817-.846A21.036 21.036 0 00165.56.02c-.45-.007-.911-.015-1.361-.017-.53-.003-1.069-.003-1.6-.003z" fill="#000"/><path d="M12.468 52.819c-.45 0-.89-.006-1.335-.015a20.435 20.435 0 01-2.76-.22 9.265 9.265 0 01-2.446-.74 7.993 7.993 0 01-2.062-1.372 7.272 7.272 0 01-2.308-4.123 15.364 15.364 0 01-.246-2.53c-.01-.286-.022-1.233-.022-1.233V11.4s.013-.933.022-1.208a15.31 15.31 0 01.244-2.527 7.32 7.32 0 012.301-4.131 8.227 8.227 0 012.07-1.38 9.17 9.17 0 012.441-.735 20.277 20.277 0 012.77-.221l1.331-.017h151.724l1.349.018c.919.01 1.836.083 2.743.219.858.133 1.69.383 2.467.74 1.532.722 2.779 1.864 3.566 3.267.384.7.651 1.451.79 2.226.153.842.239 1.693.256 2.547.005.383.005.793.005 1.202.011.506.011.988.011 1.474v28.253c0 .49 0 .97-.011 1.452 0 .439 0 .841-.006 1.255a15.708 15.708 0 01-.253 2.502 7.257 7.257 0 01-.797 2.255 7.474 7.474 0 01-1.499 1.87 8.003 8.003 0 01-2.066 1.38 9.21 9.21 0 01-2.463.743 20.2 20.2 0 01-2.759.22c-.433.01-.886.015-1.325.015l-1.601.002-150.131-.002z" fill="#fff"/><path d="M36.904 26.85a6.498 6.498 0 01.99-3.34 7.273 7.273 0 012.628-2.488 7.594 7.594 0 00-2.672-2.177 8.346 8.346 0 00-3.455-.852c-2.578-.248-5.078 1.41-6.391 1.41-1.34 0-3.362-1.386-5.54-1.345a8.723 8.723 0 00-3.986 1.087 7.807 7.807 0 00-2.882 2.743c-2.969 4.7-.754 11.609 2.09 15.409 1.423 1.86 3.086 3.938 5.263 3.865 2.13-.081 2.924-1.242 5.495-1.242 2.547 0 3.293 1.242 5.513 1.195 2.285-.034 3.725-1.869 5.098-3.747a14.893 14.893 0 002.331-4.342c-1.327-.513-2.46-1.373-3.257-2.47a6.312 6.312 0 01-1.225-3.706zM32.71 15.494c1.246-1.368 1.86-3.126 1.712-4.9-1.904.182-3.662 1.014-4.925 2.33a6.4 6.4 0 00-1.391 2.199 5.993 5.993 0 00-.365 2.519 6.794 6.794 0 002.755-.552 6.24 6.24 0 002.215-1.596zm29.743 21.144h-6.988l-1.679 4.531h-2.96l6.62-16.764h3.075l6.62 16.764H64.13l-1.677-4.53zm-6.265-2.09h5.54l-2.73-7.355h-.077l-2.733 7.354zm25.247.511c0 3.798-2.223 6.238-5.578 6.238a4.878 4.878 0 01-2.439-.516 4.356 4.356 0 01-1.767-1.622h-.063v6.054h-2.744V28.947H71.5v2.033h.05a4.57 4.57 0 011.802-1.618 5.103 5.103 0 012.454-.543c3.393 0 5.63 2.452 5.63 6.24zm-2.82 0c0-2.475-1.398-4.102-3.532-4.102-2.096 0-3.507 1.661-3.507 4.102 0 2.463 1.41 4.112 3.507 4.112 2.134 0 3.532-1.615 3.532-4.112zm17.533 0c0 3.798-2.224 6.238-5.58 6.238a4.879 4.879 0 01-2.438-.516 4.356 4.356 0 01-1.767-1.622H86.3v6.054h-2.744V28.947h2.656v2.033h.05a4.57 4.57 0 011.802-1.618 5.103 5.103 0 012.454-.543c3.393 0 5.63 2.452 5.63 6.24zm-2.821 0c0-2.475-1.399-4.102-3.532-4.102-2.097 0-3.507 1.661-3.507 4.102 0 2.463 1.41 4.112 3.507 4.112 2.133 0 3.532-1.615 3.532-4.112zm12.543 1.439c.203 1.663 1.969 2.755 4.382 2.755 2.313 0 3.977-1.092 3.977-2.591 0-1.301-1.004-2.08-3.38-2.614l-2.376-.524c-3.366-.743-4.929-2.183-4.929-4.519 0-2.892 2.757-4.88 6.67-4.88 3.875 0 6.531 1.988 6.62 4.88h-2.769c-.166-1.673-1.679-2.683-3.889-2.683s-3.723 1.022-3.723 2.509c0 1.185.966 1.883 3.329 2.416l2.02.454c3.762.813 5.323 2.195 5.323 4.647 0 3.136-2.73 5.1-7.076 5.1-4.066 0-6.811-1.917-6.988-4.95h2.809zm17.18-10.444v2.893h2.541v1.986h-2.541v6.739c0 1.046.509 1.534 1.626 1.534.302-.005.603-.024.902-.058v1.975a8.222 8.222 0 01-1.524.116c-2.706 0-3.761-.93-3.761-3.3v-7.006h-1.944v-1.986h1.944v-2.893h2.757zm4.012 9.005c0-3.846 2.477-6.262 6.34-6.262 3.875 0 6.34 2.416 6.34 6.262 0 3.856-2.452 6.262-6.34 6.262s-6.34-2.406-6.34-6.262zm9.885 0c0-2.638-1.322-4.195-3.546-4.195-2.223 0-3.545 1.568-3.545 4.195 0 2.648 1.322 4.193 3.545 4.193 2.224 0 3.546-1.545 3.546-4.193zm5.057-6.112h2.617v2.08h.064a2.911 2.911 0 011.179-1.626 3.394 3.394 0 012.036-.582c.316-.001.631.03.94.094v2.346a4.173 4.173 0 00-1.233-.151 3 3 0 00-1.165.188c-.369.139-.7.35-.972.616a2.49 2.49 0 00-.601.932 2.321 2.321 0 00-.121 1.076v7.25h-2.744V28.946zm19.486 8.633c-.369 2.218-2.732 3.74-5.756 3.74-3.888 0-6.302-2.382-6.302-6.203 0-3.834 2.427-6.32 6.187-6.32 3.698 0 6.024 2.322 6.024 6.028v.86h-9.441v.151c-.044.45.018.903.181 1.33.162.426.422.816.763 1.144.34.327.752.584 1.209.755.458.17.949.25 1.443.233a3.253 3.253 0 001.855-.391 2.85 2.85 0 001.232-1.328h2.605zm-9.275-3.648h6.683a2.728 2.728 0 00-.197-1.19 2.935 2.935 0 00-.701-1.017 3.252 3.252 0 00-1.088-.675 3.46 3.46 0 00-1.293-.22 3.66 3.66 0 00-1.303.23 3.424 3.424 0 00-1.106.672 3.102 3.102 0 00-.738 1.009 2.865 2.865 0 00-.257 1.19zm-96.37-22.145a4.23 4.23 0 011.69.232 3.937 3.937 0 011.419.872c.396.383.695.841.874 1.342.18.502.235 1.033.162 1.556 0 2.574-1.52 4.053-4.145 4.053h-3.182v-8.055h3.182zm-1.813 6.916h1.66c.411.022.823-.04 1.205-.18a2.787 2.787 0 001.002-.637c.278-.277.485-.608.606-.968s.153-.74.093-1.112c.055-.371.02-.75-.102-1.106a2.498 2.498 0 00-.608-.961 2.796 2.796 0 00-.998-.632 3.013 3.013 0 00-1.197-.182h-1.661v5.778zm7.504-1.903c-.042-.4.008-.803.147-1.184.138-.38.362-.73.657-1.028a3.155 3.155 0 011.057-.696 3.402 3.402 0 012.549 0c.4.162.76.4 1.056.696.295.297.519.648.657 1.028.14.381.189.784.147 1.184.043.4-.007.803-.145 1.184a2.835 2.835 0 01-.657 1.03 3.157 3.157 0 01-1.057.698 3.403 3.403 0 01-1.276.247c-.44 0-.874-.084-1.276-.247a3.158 3.158 0 01-1.057-.698 2.835 2.835 0 01-.657-1.03 2.648 2.648 0 01-.145-1.184zm4.92 0c0-1.318-.647-2.089-1.783-2.089-1.14 0-1.782.77-1.782 2.089 0 1.328.642 2.092 1.782 2.092 1.136 0 1.784-.77 1.784-2.092zm9.685 3.042H74.78l-1.374-4.477h-.104l-1.368 4.477h-1.348l-1.832-6.079h1.33l1.191 4.639h.098l1.367-4.639h1.259l1.366 4.639h.104l1.185-4.639h1.312l-1.825 6.079zm3.367-6.079h1.263v.966h.098c.166-.347.447-.638.802-.832a2.141 2.141 0 011.181-.251c.324-.022.649.022.95.13.303.108.574.277.795.494.222.218.386.477.482.76.097.284.122.583.075.877v3.935h-1.312v-3.634c0-.977-.465-1.463-1.435-1.463a1.668 1.668 0 00-.643.1c-.203.076-.387.19-.538.337-.15.146-.265.32-.335.511-.07.19-.095.393-.071.593v3.556h-1.312v-6.079zm7.736-2.373h1.312v8.452h-1.312V11.39zm3.136 5.41a2.65 2.65 0 01.147-1.184c.138-.38.362-.73.658-1.028a3.158 3.158 0 011.056-.697 3.404 3.404 0 012.549 0c.401.163.761.4 1.056.697.295.297.52.647.658 1.028.139.38.189.784.147 1.183.042.4-.007.804-.145 1.185a2.836 2.836 0 01-.658 1.03 3.156 3.156 0 01-1.057.698 3.403 3.403 0 01-2.551 0 3.156 3.156 0 01-1.057-.698 2.835 2.835 0 01-.658-1.03 2.648 2.648 0 01-.145-1.185zm4.92 0c0-1.318-.647-2.089-1.783-2.089-1.14 0-1.782.77-1.782 2.088 0 1.329.642 2.093 1.782 2.093 1.136 0 1.784-.77 1.784-2.093zm2.732 1.323c0-1.095.891-1.725 2.473-1.815l1.8-.095v-.525c0-.642-.464-1.004-1.361-1.004-.732 0-1.24.246-1.385.675h-1.27c.134-1.044 1.208-1.713 2.716-1.713 1.667 0 2.607.758 2.607 2.042v4.154h-1.263v-.854h-.104a2.18 2.18 0 01-.857.724 2.412 2.412 0 01-1.14.23c-.279.027-.561 0-.828-.08a2.058 2.058 0 01-.721-.38 1.854 1.854 0 01-.491-.615 1.704 1.704 0 01-.176-.744zm4.273-.52v-.508l-1.623.095c-.916.056-1.33.34-1.33.877 0 .547.518.865 1.232.865.209.02.42 0 .621-.056.201-.057.387-.15.548-.274a1.47 1.47 0 00.387-.448c.095-.172.151-.359.165-.55zm3.031-.803c0-1.921 1.08-3.138 2.76-3.138.415-.017.827.074 1.188.262.361.19.656.468.85.805h.098V11.39h1.312v8.452h-1.257v-.96h-.104a2.23 2.23 0 01-.882.796 2.483 2.483 0 01-1.205.264c-1.692 0-2.76-1.217-2.76-3.142zm1.355 0c0 1.29.665 2.065 1.777 2.065 1.105 0 1.789-.787 1.789-2.06 0-1.267-.691-2.065-1.789-2.065-1.105 0-1.777.781-1.777 2.06zm10.282 0c-.042-.4.008-.803.146-1.184.139-.38.363-.73.658-1.028a3.155 3.155 0 011.056-.696 3.408 3.408 0 012.549 0c.401.162.761.4 1.056.696.295.297.52.648.658 1.028.139.381.189.784.147 1.184.042.4-.007.803-.145 1.184a2.825 2.825 0 01-.658 1.03 3.152 3.152 0 01-1.057.698 3.403 3.403 0 01-2.551 0 3.152 3.152 0 01-1.057-.698 2.835 2.835 0 01-.657-1.03 2.631 2.631 0 01-.145-1.184zm4.92 0c0-1.318-.647-2.089-1.783-2.089-1.141 0-1.782.77-1.782 2.089 0 1.328.641 2.092 1.782 2.092 1.136 0 1.783-.77 1.783-2.092zm3.11-3.037h1.263v.966h.098c.167-.347.447-.638.803-.832a2.139 2.139 0 011.181-.251 2.35 2.35 0 01.95.13c.302.108.574.277.795.494.221.218.386.477.482.76.096.284.122.583.074.877v3.935h-1.312v-3.634c0-.977-.464-1.463-1.434-1.463a1.668 1.668 0 00-.643.1c-.204.076-.388.19-.538.337-.151.146-.265.32-.336.511-.07.19-.094.393-.071.593v3.556h-1.312v-6.079zm13.06-1.513v1.54h1.44v1.011h-1.44v3.126c0 .637.287.916.94.916.167 0 .334-.01.5-.028v1a4.708 4.708 0 01-.714.06c-1.459 0-2.04-.469-2.04-1.64V14.8h-1.055v-1.01h1.055v-1.542h1.314zm3.232-.86h1.301v3.35h.103a1.94 1.94 0 01.826-.837 2.2 2.2 0 011.201-.252c.322-.016.644.033.943.144.298.11.566.28.785.497.219.216.383.474.48.755.097.281.125.578.082.87v3.925h-1.313v-3.629c0-.97-.495-1.463-1.422-1.463a1.686 1.686 0 00-.664.084 1.579 1.579 0 00-.565.331 1.418 1.418 0 00-.359.518 1.32 1.32 0 00-.086.609v3.55h-1.312V11.39zm13.371 6.81a2.493 2.493 0 01-1.091 1.358 2.899 2.899 0 01-1.79.401 3.266 3.266 0 01-1.275-.225 3.027 3.027 0 01-1.054-.694 2.699 2.699 0 01-.638-1.035 2.547 2.547 0 01-.104-1.184 2.575 2.575 0 01.106-1.187c.127-.384.344-.74.635-1.04.29-.301.648-.542 1.049-.706a3.314 3.314 0 011.276-.243c1.849 0 2.965 1.156 2.965 3.065v.418h-4.694v.068c-.021.223.01.447.09.659.08.212.207.405.374.57.167.163.369.294.594.382a1.9 1.9 0 00.712.13c.314.035.632-.017.914-.148.281-.132.514-.336.668-.589h1.263zm-4.615-1.959h3.358a1.362 1.362 0 00-.089-.601 1.451 1.451 0 00-.348-.518 1.61 1.61 0 00-.547-.344 1.738 1.738 0 00-.653-.112 1.839 1.839 0 00-.662.115c-.21.078-.401.194-.561.34a1.54 1.54 0 00-.373.514 1.43 1.43 0 00-.125.606z" fill="#000"/></svg>