<svg width="147" height="29" fill="none" xmlns="http://www.w3.org/2000/svg"><path fill-rule="evenodd" clip-rule="evenodd" d="M6.948 1.297a.835.835 0 01-.26 1.117 15.799 15.799 0 00-4.278 4.3.83.83 0 01-1.113.263l-.913-.55A.775.775 0 01.125 5.34 18.5 18.5 0 015.311.126a.77.77 0 011.087.258l.55.913zm19.605 3.051a15.798 15.798 0 00-2.339-1.934.834.834 0 01-.26-1.117l.55-.913A.771.771 0 0125.59.126a18.465 18.465 0 015.185 5.213.775.775 0 01-.259 1.089l-.912.549a.83.83 0 01-1.113-.264c-.57-.85-1.22-1.642-1.939-2.365zm-11.102 21.84c5.879 0 10.645-4.778 10.645-10.673 0-5.894-4.766-10.672-10.645-10.672-5.88 0-10.645 4.778-10.645 10.672 0 5.895 4.766 10.673 10.645 10.673zm0 2.668a13.22 13.22 0 006.576-1.74c.4-.229.915-.108 1.145.29l.686 1.194a.797.797 0 001.091.293l.922-.534a.802.802 0 00.292-1.093L25.147 25.5a.835.835 0 01.118-.977 13.312 13.312 0 003.492-9.009c0-7.368-5.957-13.34-13.306-13.34-7.35 0-13.307 5.972-13.307 13.34a13.31 13.31 0 003.448 8.96.835.835 0 01.115.975l-1.011 1.756a.802.802 0 00.292 1.093l.922.534c.382.221.87.09 1.09-.293l.672-1.166c.23-.4.749-.52 1.148-.29a13.22 13.22 0 006.63 1.772zM8.803 19.98a.797.797 0 001.09.293l12.446-7.204a.802.802 0 00.292-1.094l-.532-.924a.797.797 0 00-1.09-.293L8.562 17.962a.802.802 0 00-.293 1.093l.533.925z" fill="url(#paint0_linear)"/><path fill-rule="evenodd" clip-rule="evenodd" d="M110.704 20.625a.132.132 0 00-.195-.011l-2.42 2.364a1.185 1.185 0 00-.357.846v3.525c0 .656-.537 1.188-1.2 1.188h-3.591c-.663 0-1.2-.532-1.2-1.188V1.506c0-.657.537-1.189 1.2-1.189h3.591c.663 0 1.2.532 1.2 1.189v14.561c0 .085.102.128.164.07l8.245-7.736c.223-.209.519-.325.826-.325h3.803c1.064 0 1.602 1.27.856 2.021l-6.461 6.513a.218.218 0 00-.016.289l7.722 9.715c.62.78.059 1.923-.943 1.923h-4.212c-.364 0-.707-.162-.935-.442l-6.077-7.47zM61.34 7.113a.18.18 0 00-.18-.178h-7.223c-.663 0-1.2-.532-1.2-1.189V3.103c0-.656.537-1.189 1.2-1.189h21.026c.663 0 1.2.533 1.2 1.189v2.643c0 .657-.537 1.189-1.2 1.189H67.76a.198.198 0 00-.199.197v20.217c0 .656-.537 1.188-1.2 1.188H62.54c-.663 0-1.2-.532-1.2-1.188V7.113zm-17.737 5.32c0-.656.537-1.188 1.2-1.188h3.59c.663 0 1.2.532 1.2 1.189v14.915c0 .656-.537 1.188-1.2 1.188h-3.59c-.663 0-1.2-.532-1.2-1.188V12.434zm50.143-2.38c-1.715-1.52-4.173-2.281-7.374-2.281-1.664 0-3.29.215-4.877.646-1.173.324-2.224.748-3.151 1.272-.52.294-.678.946-.404 1.473l1.005 1.939c.346.666 1.224.85 1.897.508a9.454 9.454 0 011.46-.59 10.356 10.356 0 013.264-.532c1.587 0 2.778.355 3.571 1.065.76.655 1.156 1.59 1.189 2.802a.161.161 0 01-.163.164h-4.597c-3.021 0-5.262.545-6.721 1.636-1.434 1.09-2.15 2.586-2.15 4.487 0 1.192.307 2.257.921 3.195.615.938 1.498 1.674 2.65 2.206 1.178.533 2.56.799 4.148.799 2.97 0 5.03-.889 6.182-2.665.033-.052.116-.029.116.032v1.14c0 .656.537 1.188 1.2 1.188h3.207c.663 0 1.2-.532 1.2-1.188V16.86c0-3.042-.858-5.312-2.573-6.808zm-5.108 14.11c-.794.457-1.703.685-2.727.685-1.05 0-1.881-.215-2.496-.646-.589-.457-.883-1.065-.883-1.826 0-1.597 1.229-2.396 3.687-2.396h4.05c.032 0 .059.026.059.058v1.826c0 .137-.023.275-.076.402a3.914 3.914 0 01-1.614 1.898zm57.763-5.28c.021-.294.032-.46.032-.5 0-2.13-.474-3.994-1.421-5.591a9.335 9.335 0 00-3.84-3.727c-1.639-.862-3.47-1.293-5.492-1.293-2.074 0-3.956.456-5.646 1.369a10.04 10.04 0 00-3.955 3.765c-.948 1.597-1.421 3.397-1.421 5.4 0 2.029.486 3.842 1.459 5.44.973 1.597 2.356 2.852 4.148 3.765 1.792.887 3.853 1.33 6.183 1.33 3.28 0 5.871-.849 7.771-2.548.455-.406.44-1.098.024-1.544l-1.625-1.746c-.456-.49-1.225-.502-1.777-.12a6.73 6.73 0 01-1.398.748c-.819.305-1.766.457-2.842.457-1.561 0-2.867-.368-3.917-1.103a4.794 4.794 0 01-1.93-2.736.215.215 0 01.213-.269h14.239c.627 0 1.15-.478 1.195-1.098zM132.3 13.4c.922-.76 2.061-1.14 3.418-1.14 1.331 0 2.458.392 3.38 1.178.87.719 1.421 1.674 1.652 2.867a.182.182 0 01-.182.214h-9.801a.132.132 0 01-.131-.153c.224-1.246.778-2.235 1.664-2.966zM46.638 8.73c1.878 0 3.4-1.508 3.4-3.368 0-1.86-1.522-3.367-3.4-3.367s-3.4 1.507-3.4 3.367 1.522 3.368 3.4 3.368z" fill="url(#paint1_linear)"/><defs><linearGradient id="paint0_linear" x1="0" y1="0" x2="28.942" y2="30.839" gradientUnits="userSpaceOnUse"><stop stop-color="#4F9AF2"/><stop offset="1" stop-color="#1E6BC6"/></linearGradient><linearGradient id="paint1_linear" x1="43.238" y1=".317" x2="57.888" y2="53.317" gradientUnits="userSpaceOnUse"><stop stop-color="#4F9AF2"/><stop offset="1" stop-color="#1E6BC6"/></linearGradient></defs></svg>