<svg width="88" height="18" fill="none" xmlns="http://www.w3.org/2000/svg"><path fill-rule="evenodd" clip-rule="evenodd" d="M4.175 1.352a.502.502 0 01-.156.67 9.495 9.495 0 00-2.571 2.584.499.499 0 01-.669.159l-.548-.33a.466.466 0 01-.156-.655A11.117 11.117 0 013.192.648a.463.463 0 01.653.155l.33.549zm11.782 1.833a9.5 9.5 0 00-1.405-1.162.502.502 0 01-.157-.671l.33-.55a.463.463 0 01.654-.154 11.096 11.096 0 013.116 3.132.466.466 0 01-.155.655l-.549.33a.499.499 0 01-.668-.159 9.521 9.521 0 00-1.166-1.42zM9.285 16.31c3.533 0 6.398-2.872 6.398-6.414s-2.865-6.414-6.398-6.414c-3.533 0-6.397 2.872-6.397 6.414s2.864 6.414 6.397 6.414zm0 1.603c1.438 0 2.787-.38 3.953-1.046a.503.503 0 01.687.176l.413.716a.48.48 0 00.655.177l.554-.321a.482.482 0 00.176-.657l-.61-1.06a.502.502 0 01.07-.588 8 8 0 002.099-5.414c0-4.428-3.58-8.017-7.997-8.017-4.416 0-7.996 3.59-7.996 8.017a8 8 0 002.072 5.385c.145.16.177.397.069.585l-.608 1.056a.482.482 0 00.176.657l.554.32a.48.48 0 00.655-.175l.404-.701a.504.504 0 01.69-.174 7.944 7.944 0 003.984 1.064zM5.29 12.58a.48.48 0 00.655.176l7.48-4.33a.482.482 0 00.175-.656l-.32-.556a.48.48 0 00-.655-.176l-7.48 4.33a.482.482 0 00-.175.657l.32.555z" fill="url(#paint0_linear)"/><path fill-rule="evenodd" clip-rule="evenodd" d="M66.528 12.967a.08.08 0 00-.117-.007l-1.454 1.421a.71.71 0 00-.215.508v2.119a.718.718 0 01-.72.714h-2.159a.718.718 0 01-.721-.714V1.477c0-.394.323-.714.721-.714h2.158c.398 0 .721.32.721.714v8.75c0 .052.062.078.099.043l4.955-4.649a.725.725 0 01.496-.196h2.286c.64 0 .962.763.514 1.215l-3.883 3.914a.13.13 0 00-.01.174l4.641 5.838a.714.714 0 01-.567 1.156h-2.531a.724.724 0 01-.562-.266l-3.652-4.49zm-29.666-8.12a.108.108 0 00-.108-.107h-4.34a.718.718 0 01-.722-.715V2.437c0-.394.324-.714.722-.714H45.05c.398 0 .721.32.721.714v1.588a.718.718 0 01-.721.715h-4.33a.119.119 0 00-.119.118v12.15a.718.718 0 01-.721.714h-2.296a.718.718 0 01-.722-.714V4.847zM26.203 8.044c0-.394.323-.714.721-.714h2.158c.399 0 .721.32.721.714v8.964a.718.718 0 01-.72.714h-2.159a.718.718 0 01-.72-.714V8.044zm30.134-1.43c-1.03-.914-2.508-1.371-4.431-1.371-1 0-1.977.13-2.931.388a8.353 8.353 0 00-1.894.765c-.313.176-.407.568-.243.885l.605 1.165c.207.4.735.511 1.14.305a5.65 5.65 0 01.877-.354 6.2 6.2 0 011.961-.32c.954 0 1.67.213 2.147.64.456.394.694.955.714 1.684a.097.097 0 01-.098.098H51.42c-1.815 0-3.162.328-4.039.983-.861.655-1.292 1.555-1.292 2.697 0 .716.185 1.356.554 1.92.37.564.9 1.006 1.592 1.326.708.32 1.539.48 2.493.48 1.785 0 3.023-.534 3.715-1.602.02-.03.07-.017.07.02v.685c0 .394.323.714.721.714h1.927c.399 0 .721-.32.721-.714v-6.303c0-1.828-.515-3.192-1.546-4.091zm-3.07 8.48c-.476.274-1.023.411-1.638.411-.63 0-1.13-.13-1.5-.389a1.318 1.318 0 01-.531-1.097c0-.96.739-1.44 2.216-1.44h2.434c.02 0 .035.016.035.035v1.097a.63.63 0 01-.045.242 2.353 2.353 0 01-.97 1.14zm34.714-3.174c.013-.176.019-.277.019-.3 0-1.28-.285-2.4-.854-3.36a5.607 5.607 0 00-2.308-2.24c-.985-.518-2.085-.777-3.3-.777-1.247 0-2.377.274-3.393.822a6.034 6.034 0 00-2.377 2.263c-.57.96-.854 2.042-.854 3.246 0 1.219.292 2.308.877 3.268s1.415 1.714 2.493 2.263c1.076.533 2.315.8 3.715.8 1.972 0 3.528-.51 4.67-1.532.274-.244.265-.66.015-.928l-.977-1.049c-.274-.294-.736-.301-1.067-.072a4.07 4.07 0 01-.84.45c-.493.182-1.062.274-1.708.274-.939 0-1.724-.221-2.355-.663a2.88 2.88 0 01-1.16-1.644.13.13 0 01.129-.162h8.557c.377 0 .69-.287.718-.66zm-8.474-3.295c.554-.457 1.238-.685 2.054-.685.8 0 1.477.236 2.03.708.524.432.855 1.006.994 1.723a.11.11 0 01-.11.128h-5.89a.079.079 0 01-.078-.092c.134-.748.467-1.342 1-1.782zm-51.48-2.807a2.034 2.034 0 002.044-2.024 2.034 2.034 0 00-2.044-2.024 2.034 2.034 0 00-2.043 2.024c0 1.118.915 2.024 2.043 2.024z" fill="url(#paint1_linear)"/><defs><linearGradient id="paint0_linear" x1="0" y1=".572" x2="17.393" y2="19.105" gradientUnits="userSpaceOnUse"><stop stop-color="#4F9AF2"/><stop offset="1" stop-color="#1E6BC6"/></linearGradient><linearGradient id="paint1_linear" x1="25.984" y1=".763" x2="34.788" y2="32.613" gradientUnits="userSpaceOnUse"><stop stop-color="#4F9AF2"/><stop offset="1" stop-color="#1E6BC6"/></linearGradient></defs></svg>