<svg width="120" height="120" viewBox="0 0 120 120" fill="none" xmlns="http://www.w3.org/2000/svg">
<circle opacity="0.1" cx="60" cy="60" r="60" fill="#1E6BC6"/>
<path d="M60.0805 87.2206C60.9126 87.2206 61.5872 86.5358 61.5872 85.6912C61.5872 84.8465 60.9126 84.1618 60.0805 84.1618C59.2483 84.1618 58.5738 84.8465 58.5738 85.6912C58.5738 86.5358 59.2483 87.2206 60.0805 87.2206Z" fill="#1E6BC6"/>
<path d="M90.3954 44.9629C90.0789 44.4124 89.3859 44.2288 88.851 44.55C88.3086 44.8712 88.1278 45.5747 88.4442 46.1176C89.2879 47.5859 89.7399 49.2606 89.7399 50.9659C89.7399 53.4282 88.8811 55.7071 87.3141 57.3818C86.493 58.2535 85.3554 59.4465 84.0371 60.7924C83.6001 61.2435 83.6001 61.97 84.0446 62.4135C84.2631 62.6353 84.5493 62.7424 84.8356 62.7424C85.1294 62.7424 85.4157 62.6276 85.6417 62.3982C86.9676 61.0371 88.1202 59.8365 88.9489 58.9571C90.9152 56.8541 92 54.0171 92 50.9582C91.9925 48.8553 91.4425 46.7829 90.3954 44.9629Z" fill="#1E6BC6"/>
<path d="M78.9143 42.5006V30.4412C78.9143 28.5447 77.3925 27 75.5242 27H45.3901C43.5218 27 42 28.5447 42 30.4412V88.5588C42 90.4553 43.5218 92 45.3901 92H75.5242C77.3925 92 78.9143 90.4553 78.9143 88.5588V64.2488L76.6542 66.5276V79H44.2601V36.9412H76.6542V42.73C74.7934 43.2118 73.1813 44.3741 72.1115 45.9724C70.6801 43.8541 68.2769 42.5082 65.6477 42.5082C65.6402 42.5082 65.6402 42.5082 65.6402 42.5082C63.5459 42.5082 61.5796 43.3341 60.1031 44.8329C58.6265 46.3318 57.8129 48.3276 57.8204 50.4459C57.8204 52.4724 58.5436 54.3612 59.8469 55.7529C62.6193 58.72 71.0116 67.0324 71.3657 67.3841C71.5841 67.5982 71.8704 67.7129 72.1567 67.7129C72.443 67.7129 72.7292 67.6059 72.9477 67.3841C72.9703 67.3612 73.6935 66.6424 74.7633 65.5718L80.1799 60.1194C81.8825 58.3912 83.472 56.7624 84.4062 55.7759C85.7321 54.3688 86.4553 52.4724 86.4553 50.4306C86.4403 46.1635 83.0878 42.6765 78.9143 42.5006ZM76.6542 81.2941V88.5588C76.6542 89.1935 76.1495 89.7059 75.5242 89.7059H45.3901C44.7648 89.7059 44.2601 89.1935 44.2601 88.5588V81.2941H76.6542ZM44.2601 34.6471V30.4412C44.2601 29.8065 44.7648 29.2941 45.3901 29.2941H75.5242C76.1495 29.2941 76.6542 29.8065 76.6542 30.4412V34.6471H44.2601ZM82.7639 54.2006C80.5189 56.5941 74.349 62.7729 72.1492 64.9676C69.9418 62.7729 63.7267 56.5865 61.4817 54.1853C60.5777 53.2141 60.0805 51.8912 60.0805 50.4535C60.0805 48.9471 60.653 47.5324 61.7002 46.4694C62.7473 45.4065 64.1486 44.8176 65.6402 44.8176H65.6477C68.1639 44.8176 70.3788 46.5459 71.0342 49.0082C71.1698 49.5129 71.6067 49.8494 72.1341 49.8571C72.6464 49.8571 73.0909 49.5053 73.2189 49.0006C73.8593 46.5229 76.0666 44.7871 78.5903 44.7871H78.5979C81.6791 44.7871 84.1802 47.3259 84.1877 50.4459C84.1877 51.8835 83.683 53.2218 82.7639 54.2006Z" fill="#1E6BC6"/>
</svg>
