<svg width="120" height="120" viewBox="0 0 120 120" fill="none" xmlns="http://www.w3.org/2000/svg">
<circle opacity="0.1" cx="60" cy="60" r="60" fill="#1E6BC6"/>
<path d="M93.6012 54.0931L61.9011 27.2687C61.4698 26.9092 60.8419 26.9092 60.4182 27.2762L29.3914 54.0032C28.9147 54.4077 28.8693 55.1194 29.2779 55.5913C29.6864 56.0632 30.4052 56.1081 30.8818 55.7036L37.5699 49.9432V85.8764C37.5699 86.4981 38.0768 87 38.7047 87H83.1379C83.7659 87 84.2728 86.4981 84.2728 85.8764V49.1567L92.1259 55.801C92.3378 55.9808 92.6026 56.0707 92.8598 56.0707C93.1776 56.0707 93.5029 55.9359 93.7223 55.6812C94.1384 55.2092 94.0779 54.4976 93.6012 54.0931ZM82.0031 84.7603H39.8396V47.9807L61.1672 29.6059L82.0031 47.2391V84.7603Z" fill="#1E6BC6"/>
<path d="M47.375 59.1644C45.877 61.7187 45.4608 64.2805 46.1493 66.5203L48.1845 72.0335C49.3042 74.5654 51.8236 76.2807 55.266 76.8575C56.0906 76.9924 56.9455 77.0598 57.8232 77.0598C60.4258 77.0598 63.1948 76.4605 65.8579 75.3069C69.4213 73.7638 72.3795 71.4043 74.1953 68.6551C76.1094 65.7562 76.5406 62.7674 75.4436 60.288L73.3404 54.8647C73.2798 54.7298 73.242 54.595 73.1739 54.4602C70.6772 49.5238 62.6803 48.4601 55.3492 52.0856C51.8765 53.8085 49.0394 56.3254 47.375 59.1644ZM73.2798 60.9846L73.3328 61.1344C74.1348 62.9547 73.764 65.1869 72.2887 67.4267C70.7151 69.8162 68.1049 71.8837 64.9425 73.2545C61.78 74.6253 58.4738 75.1197 55.6367 74.6403C52.9736 74.1983 51.0595 72.9473 50.2802 71.1945L50.2348 71.0821C51.3091 71.5915 52.5348 71.9436 53.9041 72.1009C54.464 72.1683 55.039 72.1983 55.6291 72.1983C58.4662 72.1983 61.5228 71.4417 64.4053 70.0185C68.8237 67.8237 71.9937 64.4229 73.2798 60.9846ZM64.1783 52.138C67.3937 52.138 70.0342 53.2766 71.1388 55.4639C73.0756 59.2992 69.6029 64.9173 63.3915 67.996C60.3047 69.5241 57.0363 70.1833 54.1689 69.8612C51.4831 69.554 49.5085 68.408 48.6157 66.6326C47.7154 64.8573 47.9727 62.6101 49.3345 60.2955C50.7871 57.831 53.2838 55.6287 56.363 54.1006C59.0261 52.7822 61.7649 52.138 64.1783 52.138Z" fill="#1E6BC6"/>
<path d="M56.8245 67.2769C56.8245 67.2769 64.3902 55.5388 64.7609 54.9621C64.9198 54.6924 65.177 53.7635 64.3145 53.5014C63.2402 53.2991 62.6122 54.3703 62.6122 54.3703L54.5321 66.9098C54.5321 66.9098 53.7453 68.1008 55.0163 68.5353C55.9696 68.7825 56.8245 67.2769 56.8245 67.2769Z" fill="#1E6BC6"/>
</svg>
