<svg width="120" height="120" viewBox="0 0 120 120" fill="none" xmlns="http://www.w3.org/2000/svg">
<circle opacity="0.1" cx="60" cy="60" r="60" fill="#1E6BC6"/>
<path d="M88.8573 35.2171H76.7831V30.1182C76.7831 29.4995 76.2727 29 75.6404 29C75.0081 29 74.4977 29.4995 74.4977 30.1182V35.2171H45.1996V30.1182C45.1996 29.4995 44.6892 29 44.0569 29C43.4247 29 42.9143 29.4995 42.9143 30.1182V35.2171H32.1427C31.5104 35.2171 31 35.724 31 36.3353V82.8818C31 83.5005 31.5104 84 32.1427 84H88.8573C89.4896 84 90 83.5005 90 82.8818V36.3353C90 35.724 89.4896 35.2171 88.8573 35.2171ZM87.7147 81.7636H33.2853V37.4535H42.9143V40.8379C42.9143 41.4566 43.4247 41.9561 44.0569 41.9561C44.6892 41.9561 45.1996 41.4566 45.1996 40.8379V37.4535H74.4977V40.8379C74.4977 41.4566 75.0081 41.9561 75.6404 41.9561C76.2727 41.9561 76.7831 41.4566 76.7831 40.8379V37.4535H87.7147V81.7636Z" fill="#1E6BC6"/>
<path d="M76.4174 67.1973L72.5628 63.4253C72.1134 62.9855 71.3897 62.9855 70.9478 63.4253C70.4984 63.8577 70.4984 64.5659 70.9478 65.0057L74.8025 68.7777L70.9478 72.5497C70.4984 72.9896 70.4984 73.6978 70.9478 74.1301C71.1688 74.3463 71.4659 74.4581 71.7553 74.4581C72.0448 74.4581 72.3419 74.3463 72.5628 74.1301L76.4174 70.3581L80.272 74.1301C80.493 74.3463 80.7901 74.4581 81.0795 74.4581C81.369 74.4581 81.6661 74.3463 81.887 74.1301C82.3365 73.6978 82.3365 72.9821 81.887 72.5497L78.0324 68.7777L81.887 65.0057C82.3365 64.5659 82.3365 63.8577 81.887 63.4253C81.4376 62.9855 80.7139 62.9855 80.272 63.4253L76.4174 67.1973Z" fill="#1E6BC6"/>
<path d="M48.2696 47.9869H41.2231C40.5908 47.9869 40.0804 48.4863 40.0804 49.105V56.0005C40.0804 56.6193 40.5908 57.1187 41.2231 57.1187H48.2696C48.9019 57.1187 49.4123 56.6193 49.4123 56.0005V49.105C49.4123 48.4863 48.9019 47.9869 48.2696 47.9869ZM47.1269 54.8824H42.3658V50.2232H47.1269V54.8824Z" fill="#1E6BC6"/>
<path d="M64.3203 47.9869H57.2815C56.6492 47.9869 56.1388 48.4863 56.1388 49.105V56.0005C56.1388 56.6193 56.6492 57.1187 57.2815 57.1187H64.328C64.9602 57.1187 65.4706 56.6193 65.4706 56.0005V49.105C65.463 48.4863 64.9526 47.9869 64.3203 47.9869ZM58.4241 54.8824V50.2232H63.1853V54.8824H58.4241Z" fill="#1E6BC6"/>
<path d="M48.2696 63.8428H41.2231C40.5908 63.8428 40.0804 64.3422 40.0804 64.961V71.8565C40.0804 72.4752 40.5908 72.9747 41.2231 72.9747H48.2696C48.9019 72.9747 49.4123 72.4752 49.4123 71.8565V64.961C49.4123 64.3422 48.9019 63.8428 48.2696 63.8428ZM47.1269 70.7383H42.3658V66.0792H47.1269V70.7383Z" fill="#1E6BC6"/>
<path d="M64.3203 63.8428H57.2815C56.6492 63.8428 56.1388 64.3422 56.1388 64.961V71.8565C56.1388 72.4752 56.6492 72.9747 57.2815 72.9747H64.328C64.9602 72.9747 65.4706 72.4752 65.4706 71.8565V64.961C65.463 64.3422 64.9526 63.8428 64.3203 63.8428ZM58.4241 70.7383V66.0792H63.1853V70.7383H58.4241Z" fill="#1E6BC6"/>
<path d="M72.6009 47.9869C71.9686 47.9869 71.4582 48.4863 71.4582 49.105V56.0005C71.4582 56.6193 71.9686 57.1187 72.6009 57.1187H79.6474C80.2797 57.1187 80.7901 56.6193 80.7901 56.0005V49.105C80.7901 48.4863 80.2797 47.9869 79.6474 47.9869H72.6009ZM78.5047 54.8824H73.7436V50.2232H78.5047V54.8824Z" fill="#1E6BC6"/>
</svg>
