<svg width="120" height="120" viewBox="0 0 120 120" fill="none" xmlns="http://www.w3.org/2000/svg">
<circle opacity="0.1" cx="60" cy="60" r="60" fill="#1E6BC6"/>
<path d="M92.2878 64.373C91.2758 62.9462 89.4316 62.386 87.7898 62.9985C87.7298 62.3486 87.5049 61.7286 87.1301 61.1982C85.9231 59.4801 83.5467 59.0543 81.8149 60.242L81.1852 60.6529C81.1102 60.0403 80.8928 59.4577 80.5405 58.9497C79.3185 57.2316 76.9346 56.8132 75.1953 58.0159L75.1429 58.0608C70.0751 62.3038 63.9278 66.614 62.3535 66.614C61.1915 66.614 57.638 64.6345 54.7893 63.0433C51.1609 61.0189 47.7274 59.1066 45.7932 58.9497C42.0898 58.6658 30.7998 65.2022 29.5403 65.9492C29.023 66.2555 28.8431 66.9203 29.1505 67.4358C29.4579 67.9512 30.1251 68.1305 30.6423 67.8242C35.2378 65.135 43.3868 60.9741 45.6358 61.1011C47.1351 61.2132 50.6511 63.1853 53.7622 64.9258C57.8704 67.2191 60.5093 68.6609 62.166 68.7505C62.241 68.758 62.3085 68.758 62.3834 68.7505H69.8802C71.2446 68.7505 72.3541 69.8561 72.3541 71.2156C72.3541 72.5752 71.2446 73.6808 69.8802 73.6808H69.8052C69.7302 73.6808 62.4209 74.1887 59.4147 73.6808C56.5885 73.2102 52.9826 70.0204 52.9451 69.9905C52.4953 69.5872 51.8131 69.6245 51.4082 70.0727C51.0034 70.5209 51.0409 71.2007 51.4907 71.6041C51.6556 71.7535 55.6064 75.2495 59.0549 75.8247C60.5093 76.0115 61.9711 76.1011 63.433 76.0712C66.5441 76.0712 69.7527 75.8471 69.9551 75.8322C72.504 75.5483 74.3407 73.255 74.0558 70.7151C73.8084 68.5189 72.0392 66.8008 69.8277 66.614H67.2788C70.4649 64.5299 73.5311 62.259 76.4548 59.8162C77.2045 59.3008 78.239 59.4876 78.7563 60.2346C79.0037 60.5931 79.1011 61.0339 79.0262 61.4671C78.9512 61.9004 78.7038 62.2814 78.344 62.5354L78.269 62.5951L78.1865 62.6624L78.119 62.7445L78.0516 62.8342L78.0066 62.9238L77.9541 63.0209C77.9541 63.0209 77.9541 63.0807 77.9541 63.118C77.9541 63.1554 77.9541 63.1853 77.9541 63.2226C77.9541 63.2226 77.9541 63.2898 77.9541 63.3197C77.9541 63.3571 77.9541 63.3944 77.9541 63.4318C77.9541 63.4318 77.9541 63.499 77.9541 63.5364C77.9541 63.5737 77.9541 63.6036 77.9541 63.6409C77.9541 63.6783 77.9541 63.7082 77.9541 63.7455C77.9541 63.7455 77.9541 63.8127 77.9541 63.8426C77.9691 63.88 77.9841 63.9099 78.0066 63.9472L78.0441 64.0219L78.0816 64.0667C78.1191 64.1116 78.1565 64.1564 78.2015 64.2012L78.269 64.2535L78.4039 64.3431L78.4714 64.373L78.6363 64.4328H78.6963C78.7713 64.4402 78.8537 64.4402 78.9287 64.4328C79.0187 64.4328 79.1086 64.4178 79.1911 64.3954H79.2586C79.3485 64.3655 79.431 64.3282 79.5059 64.2759L82.9769 62.0349C83.7266 61.512 84.7686 61.6912 85.2934 62.4382C85.8182 63.1853 85.6383 64.2161 84.8886 64.739L83.7716 65.4861C83.2543 65.8446 83.1194 66.5543 83.4792 67.0772C83.839 67.5926 84.5512 67.7271 85.076 67.3685L86.178 66.6215L88.2171 65.2545C88.9293 64.6793 89.9714 64.7913 90.5486 65.501C91.1259 66.2107 91.0134 67.249 90.3012 67.8242C90.2337 67.8765 90.1663 67.9213 90.0988 67.9661C78.269 76.2281 64.8574 84.8038 62.8782 84.8262C61.3789 84.8262 58.1703 82.8989 55.3065 81.2032C52.0755 79.2834 49.0318 77.4681 46.8802 77.1917C42.5921 76.624 35.965 81.5543 35.2228 82.1519C34.743 82.5179 34.6606 83.1977 35.0204 83.6683C35.3803 84.1389 36.07 84.2286 36.5423 83.87C38.3565 82.4806 43.6941 78.9547 46.5879 79.3357C48.2971 79.5598 51.4232 81.4198 54.1895 83.0707C57.593 85.0951 60.8091 87 62.8707 87C66.4767 87 87.2126 72.62 91.3583 69.7366L91.4557 69.6544C93.135 68.4143 93.4948 66.0687 92.2878 64.373Z" fill="#1E6BC6"/>
<path d="M54.1071 47.005C58.4851 47.0125 62.0311 43.4791 62.0386 39.1165C62.0461 34.754 58.5001 31.2206 54.1221 31.2131C49.744 31.2057 46.198 34.739 46.1905 39.1016C46.1905 39.1091 46.1905 39.1091 46.1905 39.1165C46.198 43.4716 49.7365 46.9975 54.1071 47.005ZM59.8496 39.1091C59.8496 42.2689 57.2782 44.8312 54.1071 44.8312C52.9826 44.8312 51.933 44.5025 51.0409 43.9422L58.9574 36.0538C59.5197 36.9427 59.8496 37.9811 59.8496 39.1091ZM54.1071 33.387C55.3365 33.387 56.476 33.7754 57.4056 34.4328L49.4066 42.3959C48.7469 41.4622 48.3571 40.3342 48.3571 39.1091C48.3646 35.9492 50.936 33.387 54.1071 33.387Z" fill="#1E6BC6"/>
<path d="M65.8469 43.4716L57.2032 52.0847C54.8268 54.4527 54.8268 58.2923 57.2032 60.6604C59.5797 63.0284 63.433 63.0284 65.8094 60.6604L74.4532 52.0473C76.8296 49.6793 76.8296 45.8396 74.4532 43.4716C72.0767 41.1036 68.2234 41.1036 65.8469 43.4716ZM64.2576 59.1365C62.7283 60.6529 60.2619 60.6454 58.74 59.129C57.2107 57.6051 57.2107 55.1399 58.74 53.616L58.7475 53.6235L62.271 50.1126L67.7961 55.618L64.2576 59.1365ZM72.9163 50.5159L69.3854 54.0269L63.8603 48.5214L67.3988 44.9955C68.9281 43.4791 71.3945 43.4866 72.9163 45.003C74.4457 46.5269 74.4457 48.992 72.9163 50.5159Z" fill="#1E6BC6"/>
<path d="M70.5699 38.4218C73.726 38.4218 76.2974 35.8596 76.2974 32.7072C76.2974 29.5548 73.726 27 70.5699 27C67.4062 27 64.8349 29.5623 64.8349 32.7146C64.8349 35.867 67.4062 38.4218 70.5699 38.4218ZM70.5699 29.241C72.489 29.241 74.0483 30.7948 74.0483 32.7146C74.0483 34.6345 72.489 36.1882 70.5699 36.1882C68.6507 36.1882 67.0839 34.6345 67.0839 32.7146C67.0839 30.7948 68.6507 29.241 70.5699 29.241Z" fill="#1E6BC6"/>
</svg>
