<svg width="120" height="120" viewBox="0 0 120 120" fill="none" xmlns="http://www.w3.org/2000/svg">
<circle opacity="0.1" cx="60" cy="60" r="60" fill="#1E6BC6"/>
<path d="M41.1307 58.4137C41.1307 59.0407 41.6376 59.5469 42.2655 59.5469H59.5232C60.1512 59.5469 60.6581 59.0407 60.6581 58.4137C60.6581 57.7866 60.1512 57.2804 59.5232 57.2804H42.2655C41.6376 57.2804 41.1307 57.7866 41.1307 58.4137Z" fill="#1E6BC6"/>
<path d="M68.8065 63.9286C68.8065 63.3016 68.2996 62.7954 67.6716 62.7954H42.2655C41.6376 62.7954 41.1307 63.3016 41.1307 63.9286C41.1307 64.5557 41.6376 65.0618 42.2655 65.0618H67.6716C68.2996 65.0618 68.8065 64.5557 68.8065 63.9286Z" fill="#1E6BC6"/>
<path d="M42.2655 75.9557H62.7387C63.3667 75.9557 63.8736 75.4496 63.8736 74.8225C63.8736 74.1955 63.3667 73.6893 62.7387 73.6893H42.2655C41.6376 73.6893 41.1307 74.1955 41.1307 74.8225C41.1307 75.4496 41.6376 75.9557 42.2655 75.9557Z" fill="#1E6BC6"/>
<path d="M42.2655 70.5768H56.9508C57.5788 70.5768 58.0857 70.0706 58.0857 69.4436C58.0857 68.8165 57.5788 68.3104 56.9508 68.3104H42.2655C41.6376 68.3104 41.1307 68.8165 41.1307 69.4436C41.1307 70.0706 41.6376 70.5768 42.2655 70.5768Z" fill="#1E6BC6"/>
<path d="M76.6901 58.9274C76.0849 59.0936 75.7293 59.7206 75.8957 60.3174C76.4102 62.1759 76.6674 64.1099 76.6674 66.0666C76.6674 78.0106 66.9302 87.7336 54.9686 87.7336C43.007 87.7411 33.2698 78.0182 33.2698 66.0666C33.2698 54.115 43.007 44.3996 54.9686 44.3996C55.4755 44.3996 55.99 44.4147 56.4969 44.4525C57.1097 44.5054 57.662 44.0219 57.7074 43.4024C57.7528 42.7754 57.2762 42.239 56.6558 42.1936C56.0883 42.1559 55.5209 42.1332 54.9686 42.1332C41.7511 42.1332 31 52.876 31 66.0666C31 79.2647 41.7511 90 54.9686 90C68.1861 90 78.9372 79.2647 78.9372 66.0666C78.9372 63.9059 78.6497 61.768 78.0822 59.7131C77.9158 59.1162 77.2878 58.7612 76.6901 58.9274Z" fill="#1E6BC6"/>
<path d="M94.833 30.2572C94.4018 28.4063 93.1988 26.9709 91.2544 25.9736C90.8988 25.7923 90.4751 25.6261 89.9833 25.4372C88.6593 24.916 86.8435 24.1983 85.6632 22.8158C83.2648 19.9978 82.9849 17.0666 82.9849 17.0439C82.9395 16.4396 82.4099 15.9712 81.8122 16.0014C81.1994 16.024 80.7227 16.5227 80.7227 17.1346V39.4286C78.6648 36.7014 75.3964 34.9184 71.7194 34.9184C65.5078 34.9184 60.4463 39.965 60.4463 46.175C60.4463 52.3774 65.5002 57.4315 71.7194 57.4315C77.9385 57.4315 83 52.385 83 46.175C83 46.0541 82.9849 45.9332 82.9849 45.8048C82.9925 45.7595 83 45.7142 83 45.6613V23.0348C83.28 23.4428 83.5977 23.8659 83.9458 24.2738C85.4968 26.0945 87.706 26.9633 89.1662 27.5375C89.605 27.7112 89.9757 27.8548 90.2405 27.9907C91.5797 28.6707 92.3665 29.5772 92.6389 30.7558C93.3501 33.8079 90.4978 37.6608 90.4675 37.6986C90.0892 38.1972 90.1951 38.9073 90.6945 39.2851C91.1938 39.6628 91.905 39.5646 92.2833 39.0584C92.4044 38.8771 95.7787 34.3443 94.833 30.2572ZM71.7042 55.1576C66.741 55.1576 62.7009 51.1233 62.7009 46.1674C62.7009 41.2115 66.741 37.1773 71.7042 37.1773C76.675 37.1773 80.7151 41.2115 80.7151 46.1674C80.7151 51.1309 76.675 55.1576 71.7042 55.1576Z" fill="#1E6BC6"/>
</svg>
