<svg width="120" height="120" viewBox="0 0 120 120" fill="none" xmlns="http://www.w3.org/2000/svg">
<circle opacity="0.1" cx="60" cy="60" r="60" fill="#1E6BC6"/>
<path d="M99.925 28.7386C99.7606 28.309 99.3571 28.0302 98.9087 28.0151L92.265 27.8568L92.4145 21.1569C92.422 20.6972 92.1604 20.2827 91.7419 20.0943C91.3234 19.9134 90.8451 19.9963 90.5163 20.3128L82.5723 27.9623C82.3556 28.1658 82.2286 28.4522 82.2286 28.7536L82.0567 35.9057L80.0912 37.8878C74.875 33.0117 67.895 30.0273 60.235 30.0273C44.1154 30.0273 31 43.2538 31 59.5174C31 75.7735 44.1154 89 60.235 89C76.3547 89 89.4775 75.7735 89.4775 59.5174C89.4775 52.5764 87.0786 46.2005 83.088 41.1586L81.5037 42.7714C85.0908 47.3913 87.2356 53.2019 87.2356 59.5174C87.2356 74.53 75.1216 86.7391 60.2425 86.7391C45.3485 86.7391 33.242 74.53 33.242 59.5174C33.242 44.5048 45.3485 32.2882 60.235 32.2882C67.2748 32.2882 73.6942 35.024 78.5069 39.4931L74.3593 43.6758C70.6078 40.2769 65.6606 38.2044 60.235 38.2044C48.5844 38.2044 39.1084 47.7681 39.1084 59.5174C39.1084 71.2667 48.5844 80.823 60.235 80.823C71.8857 80.823 81.3692 71.2667 81.3692 59.5174C81.3692 54.8524 79.867 50.5264 77.3336 47.0145L75.7194 48.6499C77.8568 51.7323 79.1272 55.4779 79.1272 59.5174C79.1272 70.0157 70.6526 78.562 60.235 78.562C49.8249 78.562 41.3503 70.0157 41.3503 59.5174C41.3503 49.0116 49.8249 40.4653 60.235 40.4653C65.0403 40.4653 69.427 42.2891 72.7675 45.2735L65.7428 52.3578C64.2182 51.1595 62.3126 50.4435 60.235 50.4435C55.2803 50.4435 51.2448 54.5132 51.2448 59.5099C51.2448 64.5065 55.2803 68.5762 60.235 68.5762C65.1897 68.5762 69.2253 64.5065 69.2253 59.5099C69.2253 58.2588 68.9637 57.0681 68.5078 55.9904L66.7516 57.7765C66.9011 58.3342 66.9833 58.9145 66.9833 59.5174C66.9833 63.2706 63.9567 66.3228 60.235 66.3228C56.5134 66.3228 53.4868 63.2706 53.4868 59.5174C53.4868 55.7643 56.5134 52.712 60.235 52.712C61.6923 52.712 63.0375 53.1868 64.1435 53.9781L59.4429 58.7186C59.002 59.1632 59.002 59.8792 59.4429 60.3163C59.6596 60.5348 59.9511 60.6479 60.235 60.6479C60.519 60.6479 60.8105 60.5348 61.0272 60.3163L63.5606 57.7614L67.3271 53.9631L74.3518 46.8788L75.9436 45.2735L80.0912 41.0908L81.6755 39.4931L82.3332 38.8299L82.7965 38.3626L83.4019 37.7522L90.9049 37.9255C90.9124 37.9255 90.9199 37.9255 90.9348 37.9255C91.2263 37.9255 91.5028 37.8125 91.7045 37.609L99.6485 29.967C99.9773 29.6505 100.089 29.1682 99.925 28.7386ZM90.4939 35.657L85.599 35.544L89.1487 31.9642C89.5896 31.5195 89.5896 30.8036 89.1487 30.3664C88.7078 29.9218 88.0053 29.9218 87.5644 30.3664L84.3584 33.5996L84.463 29.2812L88.1025 25.7768L90.1128 23.8399L90.0007 28.9421C89.9857 29.5676 90.4789 30.0801 91.0992 30.0951L96.1586 30.2157L90.4939 35.657Z" fill="#1E6BC6"/>
</svg>
